<svg xmlns="http://www.w3.org/2000/svg" xmlns:xlink="http://www.w3.org/1999/xlink" viewBox="0 0 500 500"><defs><clipPath id="freepik--clip-path--inject-14"><path d="M163.24,235.29s.86,14.86.21,18.74,0,4.52-11.41.64-18.31-2.58-22.83,9.05,15.29,85.72,15.93,87.87-7.1,21.32-12.7,40.71-8.83,36.4-8.83,36.4H227.42s-3.66-27.14-9.48-43.73-12.49-38.55-12.49-38.55,12.92-62.89,10.55-77.53-9-16.59-16.8-16.59a50.23,50.23,0,0,0-15.29,2.8l.65-15.29S165.39,240.24,163.24,235.29Z" style="fill:#F1C6AF;stroke:#263238;stroke-linecap:round;stroke-linejoin:round"></path></clipPath><clipPath id="freepik--clip-path-2--inject-14"><path d="M194.47,253s12.92-8.4,20.89-2.59,4.74,24.34,4.74,35.76,2.15,35.75.43,44.36-5,12.71-9.48,13.36-9.91-4.09-9.91-15.29-2.15-40.28-2.37-46.1-1.5-14.43-1.5-14.43" style="fill:#F1C6AF;stroke:#263238;stroke-linecap:round;stroke-linejoin:round"></path></clipPath><clipPath id="freepik--clip-path-3--inject-14"><path d="M151.18,256.61a16.56,16.56,0,0,0-12.5-4.52c-7.53.64-14,6.46-15.07,17s21.32,68.49,25.2,73.23,7.32,6.68,13.13,5.17,6-26.92,1.94-38.55-12.27-37.26-12.27-37.26" style="fill:#F1C6AF;stroke:#263238;stroke-linecap:round;stroke-linejoin:round"></path></clipPath><clipPath id="freepik--clip-path-4--inject-14"><path d="M121.24,129.32l14,56.22s4.95,3.87,24.33-7.54,8.84-18.74,8.84-18.74Z" style="fill:#fff;stroke:#263238;stroke-linecap:round;stroke-linejoin:round"></path></clipPath></defs><g id="freepik--background-simple--inject-14"><path d="M67.84,286.83s9.2,69.83,72.13,110,144,34.3,209.87,31.34,112.37-45.81,114.37-102.83-49.61-67.85-83.07-128.71-33.13-82.15-94.39-115-148.6,1.48-189,74.17S67.84,286.83,67.84,286.83Z" style="fill:#F1C6AF"></path><path d="M67.84,286.83s9.2,69.83,72.13,110,144,34.3,209.87,31.34,112.37-45.81,114.37-102.83-49.61-67.85-83.07-128.71-33.13-82.15-94.39-115-148.6,1.48-189,74.17S67.84,286.83,67.84,286.83Z" style="fill:#fff;opacity:0.7000000000000001"></path></g><g id="freepik--Pictures--inject-14"><rect x="223.88" y="162.4" width="55.02" height="81.1" style="fill:#F1C6AF"></rect><rect x="223.88" y="162.4" width="55.02" height="81.1" style="fill:#fff;opacity:0.5"></rect><rect x="230.52" y="172.19" width="41.74" height="61.52" style="fill:#fff"></rect><rect x="137.88" y="83.4" width="77.33" height="114" style="fill:#F1C6AF"></rect><rect x="137.88" y="83.4" width="77.33" height="114" style="fill:#fff;opacity:0.5"></rect><rect x="147.21" y="97.16" width="58.67" height="86.48" style="fill:#fff"></rect></g><g id="freepik--birthday-ornament--inject-14"><path d="M49.63,171.74c25.12,6.81,56.36,10,89.45.64,68.55-19.33,111.44-93.11,111.44-93.11" style="fill:none;stroke:#263238;stroke-linecap:round;stroke-linejoin:round"></path><polygon points="123.34 175.25 113.51 203.47 98.88 177.42 123.34 175.25" style="fill:#F1C6AF"></polygon><polygon points="85.6 177.16 69.48 202.32 61.3 173.59 85.6 177.16" style="fill:#263238"></polygon><polygon points="155.91 165.53 153.4 195.3 132.75 173.7 155.91 165.53" style="fill:#263238"></polygon><polygon points="186.97 148.09 190.31 177.79 165.85 160.63 186.97 148.09" style="fill:#F1C6AF"></polygon><polygon points="217.1 121.15 227.46 149.18 199.6 138.38 217.1 121.15" style="fill:#263238"></polygon><polygon points="241.68 90.49 256.35 116.52 227.13 110.28 241.68 90.49" style="fill:#F1C6AF"></polygon><path d="M261.57,78.54S298.39,153.92,378.3,172c21.38,4.84,43.08,4,62.88.49" style="fill:none;stroke:#263238;stroke-linecap:round;stroke-linejoin:round"></path><polygon points="363.09 167.02 340.99 187.13 340.56 157.25 363.09 167.02" style="fill:#F1C6AF"></polygon><polygon points="329.01 150.7 302.85 165.11 309.37 135.96 329.01 150.7" style="fill:#263238"></polygon><polygon points="294.74 122.77 266 130.93 278.92 103.99 294.74 122.77" style="fill:#F1C6AF"></polygon><polygon points="396.36 174.02 379.94 198.99 372.11 170.15 396.36 174.02" style="fill:#263238"></polygon><polygon points="431.97 173.52 420.74 201.21 407.43 174.46 431.97 173.52" style="fill:#F1C6AF"></polygon></g><g id="freepik--Balloons--inject-14"><path d="M424.28,248.58c0,25.13-17,53.93-34.13,53.93S356,273.71,356,248.58s17-42.11,34.13-42.11S424.28,223.45,424.28,248.58Z" style="fill:#F1C6AF"></path><path d="M424.28,248.58c0,25.13-17,53.93-34.13,53.93S356,273.71,356,248.58s17-42.11,34.13-42.11S424.28,223.45,424.28,248.58Z" style="fill:#fff;opacity:0.30000000000000004"></path><path d="M454.43,309.17c-5.17,20.23-24.78,39.91-38.57,36.38s-21.54-30.2-16.37-50.43,22.35-30.39,36.14-26.87S459.61,288.94,454.43,309.17Z" style="fill:#F1C6AF"></path><path d="M454.43,309.17c-5.17,20.23-24.78,39.91-38.57,36.38s-21.54-30.2-16.37-50.43,22.35-30.39,36.14-26.87S459.61,288.94,454.43,309.17Z" style="fill:#fff;opacity:0.5"></path><path d="M386.85,295.69c5.67,20.09-1.42,46.95-15.13,50.82s-33.78-15.33-39.45-35.42,4.09-37.51,17.79-41.37S381.18,275.59,386.85,295.69Z" style="fill:#F1C6AF"></path><path d="M386.85,295.69c5.67,20.09-1.42,46.95-15.13,50.82s-33.78-15.33-39.45-35.42,4.09-37.51,17.79-41.37S381.18,275.59,386.85,295.69Z" style="fill:#fff;opacity:0.5"></path><polyline points="415.86 345.55 390.15 428.84 390.15 302.51" style="fill:none;stroke:#263238;stroke-linecap:round;stroke-linejoin:round"></polyline><line x1="371.72" y1="346.51" x2="390.15" y2="428.84" style="fill:none;stroke:#263238;stroke-linecap:round;stroke-linejoin:round"></line></g><g id="freepik--Plants--inject-14"><path d="M108.72,333.85c.06,0-.16-4.67-.21-5-.5-3.35-3.23-9.29-6.57-9.44-2.41-.11-4.36,2.36-4.45,5.06s1.72,5.18,3.45,6.62C103,332.82,108.72,333.85,108.72,333.85Z" style="fill:#F1C6AF"></path><path d="M100.71,419.38c1.76,3.66,3.21,6.93,4.34,9.59h2.59c-1.26-2.86-3-6.61-5.17-10.89-.78-1.55-1.64-3.17-2.54-4.84a52.7,52.7,0,0,0,3.74-4.43c2.21,1.19,7.09,1.47,7.73,1.5-.13,1.85-.27,3.65-.42,5.34-.48,5.4-1,10-1.5,13.32h2.24c.4-3.39.88-8,1.25-13.34.13-1.88.25-3.88.34-5.94.65-.16,5.92-1.43,8.06-3.13,1.94-1.54,4.1-4.08,4.38-6.84s-1.34-5.07-3.77-4.83c-3.38.34-6.93,6.44-7.9,9.84-.06.2-.48,2.43-.72,3.84,0-.84.08-1.66.11-2.53.06-1.71.08-3.41.11-5.25,0-.88,0-1.77,0-2.67s-.09-1.83-.13-2.76c-.14-2.14-.38-4.28-.65-6.44,1.3-.09,5.9-.49,8-1.7s4.52-3.38,5.16-6.09-.64-5.34-3-5.52c-3.33-.26-7.59,5.25-9,8.49-.08.2-.87,2.63-1.28,4-.17-1.3-.34-2.59-.55-3.88-.62-3.74-1.35-7.49-2.06-11.24-.22-1.14-.43-2.29-.64-3.44.46,0,5.94-.37,8.29-1.72,2.1-1.21,4.53-3.38,5.16-6.1s-.63-5.33-3-5.52c-3.33-.25-7.59,5.25-9,8.49-.1.25-1.23,3.74-1.48,4.64-.46-2.53-.9-5.05-1.24-7.58a89.09,89.09,0,0,1-.84-10.34c.21,0,5.92-.34,8.33-1.73,2.1-1.2,4.53-3.38,5.16-6.09s-.63-5.34-3-5.52c-3.33-.26-7.59,5.25-9,8.49-.09.21-.95,2.87-1.33,4.14h-.19a69.9,69.9,0,0,1,.81-10.61c.28-1.94.63-3.8,1-5.59,1.06.06,5.91.3,8.17-.69s4.77-2.81,5.65-5.46-.11-5.45-2.45-5.94c-3.24-.68-8,4.31-9.63,7.39-.09.16-.87,2-1.42,3.28.19-.8.36-1.64.55-2.42.7-2.9,1.5-5.53,2.21-7.85.42-1.32.82-2.51,1.2-3.61,1.13-.57,5.63-2.93,7.33-4.93s3.33-4.92,3.09-7.62-2.29-4.51-4.67-3.67c-3.31,1.16-5.71,7.88-6,11.36,0,.3,0,5,0,5l.07,0c-.38,1.06-.79,2.2-1.21,3.45-.76,2.31-1.61,4.94-2.36,7.84a94.85,94.85,0,0,0-2.07,9.46,70.48,70.48,0,0,0-1,10.71v.13c-.28-1.06-1.16-4-1.25-4.18-1.27-3-5.34-7.72-8.69-6.84-2.41.64-3.78,3.56-3.25,6.11s2.89,4.33,5,5.15c2.31.92,7.82.23,8.26.17a89,89,0,0,0,.66,10.75c.24,2.06.54,4.12.86,6.18-.27-.9-.52-1.7-.57-1.81-1.27-3-5.34-7.71-8.69-6.83-2.41.63-3.77,3.55-3.25,6.11s2.89,4.33,5,5.14,6.78.35,8,.21c.13.78.25,1.57.39,2.36.64,3.78,1.29,7.54,1.83,11.27.19,1.31.34,2.62.49,3.93-.24-.8-.45-1.48-.49-1.57-1.28-3-5.35-7.72-8.7-6.84-2.41.64-3.77,3.56-3.25,6.11s2.9,4.33,5,5.15,6.32.39,7.8.23c.12,1.34.24,2.69.3,4,0,.9.1,1.76.08,2.68s0,1.79,0,2.68c-.06,1.71-.12,3.48-.21,5.15-.06,1.16-.14,2.27-.21,3.39-.17-1.32-.57-3.87-.62-4.08a15.73,15.73,0,0,0-4.27-7,5.14,5.14,0,0,0-.32-.91,3.51,3.51,0,0,0-5.68-1.34c-2.85,2.42-3.08,9.45-2.32,12.71,0,.19.74,2.19,1.2,3.44-.37-.68-.72-1.34-1.11-2-.76-1.37-1.56-2.71-2.42-4.15l-1.32-2.06c-.42-.69-1-1.36-1.44-2.05-1.15-1.57-2.38-3.09-3.66-4.59,1.11-.9,5-4.17,6.31-6.46s2.42-5.52,1.68-8-3.13-3.74-5.35-2.35c-3.09,1.94-4.25,8.95-3.93,12.36,0,.21.49,2.6.76,3.9-.77-.89-1.54-1.78-2.35-2.65-2.35-2.51-4.79-5-7.23-7.42l-2.21-2.26c.4-.32,5.11-4.1,6.56-6.66,1.28-2.28,2.41-5.53,1.67-8s-3.13-3.74-5.35-2.35c-3.09,1.94-4.24,8.95-3.93,12.36,0,.25.7,3.69.91,4.55-1.62-1.67-3.22-3.35-4.74-5.09a68.82,68.82,0,0,1-5.72-7.5c.19-.15,5.12-4.07,6.6-6.69,1.29-2.28,2.42-5.53,1.68-8.05s-3.13-3.73-5.35-2.34c-3.09,1.93-4.24,8.94-3.93,12.35,0,.23.53,2.85.8,4.08l-.17.11a53.8,53.8,0,0,1-4.37-8.76c-.69-1.69-1.26-3.36-1.78-5,1-.63,5.4-3.55,6.95-5.77s2.9-5.25,2.41-7.87-2.71-4.16-5-3c-3.22,1.55-5,8.45-5,11.91,0,.19.17,2.09.32,3.47-.23-.75-.47-1.51-.67-2.24-.77-2.7-1.33-5.26-1.8-7.52-.26-1.3-.48-2.47-.66-3.58.72-1.16,3.61-5.88,4.16-8.52s.6-6-.9-7.91a3.63,3.63,0,0,0-5.93.14c-2.38,3-1.31,9.79.07,12.71.11.26,2.39,3.91,2.43,3.85l0-.07c.16,1.07.35,2.21.57,3.46.44,2.28.94,4.86,1.66,7.61a81.88,81.88,0,0,0,2.7,8.68,55.15,55.15,0,0,0,4.22,9l.07.1c-.76-.64-2.94-2.34-3.12-2.45-2.57-1.5-8.46-2.57-11,.26a5.06,5.06,0,0,0,0,6.84c1.72,1.68,4.65,1.51,6.88.82,2.5-.77,7.07-4.83,7.44-5.16a67.33,67.33,0,0,0,5.74,7.93c1.2,1.45,2.46,2.86,3.74,4.26-.68-.53-1.28-1-1.38-1.05-2.57-1.51-8.46-2.57-11,.26a5,5,0,0,0,0,6.83c1.72,1.69,4.65,1.52,6.87.83s6.21-4.07,7.25-5l1.47,1.59c2.39,2.52,4.78,5,7,7.58.81.9,1.56,1.82,2.32,2.74-.6-.47-1.11-.86-1.19-.91-2.57-1.5-8.46-2.56-11,.27a5.06,5.06,0,0,0,0,6.83c1.73,1.68,4.66,1.51,6.88.83s5.82-3.75,7.06-4.83c.75,1,1.5,1.95,2.19,2.93.45.69.93,1.31,1.35,2l1.28,2.09c.77,1.37,1.57,2.78,2.28,4.14.51.94,1,1.85,1.45,2.76-.79-.9-2.37-2.63-2.51-2.76-2.31-2-7.9-4.07-10.76-1.68a5.23,5.23,0,0,0-.87,6.87c1.46,2,4.33,2.33,6.58,2,2.48-.33,7.28-3.45,7.88-3.84C99.29,416.47,100,418,100.71,419.38Z" style="fill:#F1C6AF"></path><path d="M51.23,360.12c2.63,0,8.23-2.87,8.24-2.88s-2.39-3.52-2.57-3.72c-2.06-2.28-7.34-5.14-10.39-3.12A5.3,5.3,0,0,0,45,357.18C46.2,359.39,49,360.11,51.23,360.12Z" style="fill:#F1C6AF"></path><g style="opacity:0.5"><path d="M108.72,333.85c.06,0-.16-4.67-.21-5-.5-3.35-3.23-9.29-6.57-9.44-2.41-.11-4.36,2.36-4.45,5.06s1.72,5.18,3.45,6.62C103,332.82,108.72,333.85,108.72,333.85Z" style="fill:#fff"></path><path d="M100.71,419.38c1.76,3.66,3.21,6.93,4.34,9.59h2.59c-1.26-2.86-3-6.61-5.17-10.89-.78-1.55-1.64-3.17-2.54-4.84a52.7,52.7,0,0,0,3.74-4.43c2.21,1.19,7.09,1.47,7.73,1.5-.13,1.85-.27,3.65-.42,5.34-.48,5.4-1,10-1.5,13.32h2.24c.4-3.39.88-8,1.25-13.34.13-1.88.25-3.88.34-5.94.65-.16,5.92-1.43,8.06-3.13,1.94-1.54,4.1-4.08,4.38-6.84s-1.34-5.07-3.77-4.83c-3.38.34-6.93,6.44-7.9,9.84-.06.2-.48,2.43-.72,3.84,0-.84.08-1.66.11-2.53.06-1.71.08-3.41.11-5.25,0-.88,0-1.77,0-2.67s-.09-1.83-.13-2.76c-.14-2.14-.38-4.28-.65-6.44,1.3-.09,5.9-.49,8-1.7s4.52-3.38,5.16-6.09-.64-5.34-3-5.52c-3.33-.26-7.59,5.25-9,8.49-.08.2-.87,2.63-1.28,4-.17-1.3-.34-2.59-.55-3.88-.62-3.74-1.35-7.49-2.06-11.24-.22-1.14-.43-2.29-.64-3.44.46,0,5.94-.37,8.29-1.72,2.1-1.21,4.53-3.38,5.16-6.1s-.63-5.33-3-5.52c-3.33-.25-7.59,5.25-9,8.49-.1.25-1.23,3.74-1.48,4.64-.46-2.53-.9-5.05-1.24-7.58a89.09,89.09,0,0,1-.84-10.34c.21,0,5.92-.34,8.33-1.73,2.1-1.2,4.53-3.38,5.16-6.09s-.63-5.34-3-5.52c-3.33-.26-7.59,5.25-9,8.49-.09.21-.95,2.87-1.33,4.14h-.19a69.9,69.9,0,0,1,.81-10.61c.28-1.94.63-3.8,1-5.59,1.06.06,5.91.3,8.17-.69s4.77-2.81,5.65-5.46-.11-5.45-2.45-5.94c-3.24-.68-8,4.31-9.63,7.39-.09.16-.87,2-1.42,3.28.19-.8.36-1.64.55-2.42.7-2.9,1.5-5.53,2.21-7.85.42-1.32.82-2.51,1.2-3.61,1.13-.57,5.63-2.93,7.33-4.93s3.33-4.92,3.09-7.62-2.29-4.51-4.67-3.67c-3.31,1.16-5.71,7.88-6,11.36,0,.3,0,5,0,5l.07,0c-.38,1.06-.79,2.2-1.21,3.45-.76,2.31-1.61,4.94-2.36,7.84a94.85,94.85,0,0,0-2.07,9.46,70.48,70.48,0,0,0-1,10.71v.13c-.28-1.06-1.16-4-1.25-4.18-1.27-3-5.34-7.72-8.69-6.84-2.41.64-3.78,3.56-3.25,6.11s2.89,4.33,5,5.15c2.31.92,7.82.23,8.26.17a89,89,0,0,0,.66,10.75c.24,2.06.54,4.12.86,6.18-.27-.9-.52-1.7-.57-1.81-1.27-3-5.34-7.71-8.69-6.83-2.41.63-3.77,3.55-3.25,6.11s2.89,4.33,5,5.14,6.78.35,8,.21c.13.78.25,1.57.39,2.36.64,3.78,1.29,7.54,1.83,11.27.19,1.31.34,2.62.49,3.93-.24-.8-.45-1.48-.49-1.57-1.28-3-5.35-7.72-8.7-6.84-2.41.64-3.77,3.56-3.25,6.11s2.9,4.33,5,5.15,6.32.39,7.8.23c.12,1.34.24,2.69.3,4,0,.9.1,1.76.08,2.68s0,1.79,0,2.68c-.06,1.71-.12,3.48-.21,5.15-.06,1.16-.14,2.27-.21,3.39-.17-1.32-.57-3.87-.62-4.08a15.73,15.73,0,0,0-4.27-7,5.14,5.14,0,0,0-.32-.91,3.51,3.51,0,0,0-5.68-1.34c-2.85,2.42-3.08,9.45-2.32,12.71,0,.19.74,2.19,1.2,3.44-.37-.68-.72-1.34-1.11-2-.76-1.37-1.56-2.71-2.42-4.15l-1.32-2.06c-.42-.69-1-1.36-1.44-2.05-1.15-1.57-2.38-3.09-3.66-4.59,1.11-.9,5-4.17,6.31-6.46s2.42-5.52,1.68-8-3.13-3.74-5.35-2.35c-3.09,1.94-4.25,8.95-3.93,12.36,0,.21.49,2.6.76,3.9-.77-.89-1.54-1.78-2.35-2.65-2.35-2.51-4.79-5-7.23-7.42l-2.21-2.26c.4-.32,5.11-4.1,6.56-6.66,1.28-2.28,2.41-5.53,1.67-8s-3.13-3.74-5.35-2.35c-3.09,1.94-4.24,8.95-3.93,12.36,0,.25.7,3.69.91,4.55-1.62-1.67-3.22-3.35-4.74-5.09a68.82,68.82,0,0,1-5.72-7.5c.19-.15,5.12-4.07,6.6-6.69,1.29-2.28,2.42-5.53,1.68-8.05s-3.13-3.73-5.35-2.34c-3.09,1.93-4.24,8.94-3.93,12.35,0,.23.53,2.85.8,4.08l-.17.11a53.8,53.8,0,0,1-4.37-8.76c-.69-1.69-1.26-3.36-1.78-5,1-.63,5.4-3.55,6.95-5.77s2.9-5.25,2.41-7.87-2.71-4.16-5-3c-3.22,1.55-5,8.45-5,11.91,0,.19.17,2.09.32,3.47-.23-.75-.47-1.51-.67-2.24-.77-2.7-1.33-5.26-1.8-7.52-.26-1.3-.48-2.47-.66-3.58.72-1.16,3.61-5.88,4.16-8.52s.6-6-.9-7.91a3.63,3.63,0,0,0-5.93.14c-2.38,3-1.31,9.79.07,12.71.11.26,2.39,3.91,2.43,3.85l0-.07c.16,1.07.35,2.21.57,3.46.44,2.28.94,4.86,1.66,7.61a81.88,81.88,0,0,0,2.7,8.68,55.15,55.15,0,0,0,4.22,9l.07.1c-.76-.64-2.94-2.34-3.12-2.45-2.57-1.5-8.46-2.57-11,.26a5.06,5.06,0,0,0,0,6.84c1.72,1.68,4.65,1.51,6.88.82,2.5-.77,7.07-4.83,7.44-5.16a67.33,67.33,0,0,0,5.74,7.93c1.2,1.45,2.46,2.86,3.74,4.26-.68-.53-1.28-1-1.38-1.05-2.57-1.51-8.46-2.57-11,.26a5,5,0,0,0,0,6.83c1.72,1.69,4.65,1.52,6.87.83s6.21-4.07,7.25-5l1.47,1.59c2.39,2.52,4.78,5,7,7.58.81.9,1.56,1.82,2.32,2.74-.6-.47-1.11-.86-1.19-.91-2.57-1.5-8.46-2.56-11,.27a5.06,5.06,0,0,0,0,6.83c1.73,1.68,4.66,1.51,6.88.83s5.82-3.75,7.06-4.83c.75,1,1.5,1.95,2.19,2.93.45.69.93,1.31,1.35,2l1.28,2.09c.77,1.37,1.57,2.78,2.28,4.14.51.94,1,1.85,1.45,2.76-.79-.9-2.37-2.63-2.51-2.76-2.31-2-7.9-4.07-10.76-1.68a5.23,5.23,0,0,0-.87,6.87c1.46,2,4.33,2.33,6.58,2,2.48-.33,7.28-3.45,7.88-3.84C99.29,416.47,100,418,100.71,419.38Z" style="fill:#fff"></path><path d="M51.23,360.12c2.63,0,8.23-2.87,8.24-2.88s-2.39-3.52-2.57-3.72c-2.06-2.28-7.34-5.14-10.39-3.12A5.3,5.3,0,0,0,45,357.18C46.2,359.39,49,360.11,51.23,360.12Z" style="fill:#fff"></path></g></g><g id="freepik--Cake--inject-14"><path d="M292.46,410.17s5.17,3.23,4.09,15.08H306S305,415.34,310.55,410Z" style="fill:#fff;stroke:#263238;stroke-linecap:round;stroke-linejoin:round"></path><rect x="280.19" y="424.39" width="42.18" height="4.74" style="fill:#fff;stroke:#263238;stroke-linecap:round;stroke-linejoin:round"></rect><path d="M277.73,281s-3.93,22.31-.93,39.19h3.56A196.25,196.25,0,0,0,277.73,281Z" style="fill:#fff;stroke:#263238;stroke-linecap:round;stroke-linejoin:round"></path><path d="M277.73,281s-3.74-3-2.24-6.75a34.67,34.67,0,0,1,3.18-6.19s.56,3.94,1.31,7.32S277.73,281,277.73,281Z" style="fill:#F1C6AF"></path><path d="M289.73,281s-3.93,22.31-.93,39.19h3.56A196.25,196.25,0,0,0,289.73,281Z" style="fill:#fff;stroke:#263238;stroke-linecap:round;stroke-linejoin:round"></path><path d="M289.73,281s-3.75-3-2.25-6.75a34.26,34.26,0,0,1,3.19-6.19s.56,3.94,1.31,7.32S289.73,281,289.73,281Z" style="fill:#F1C6AF"></path><path d="M301.73,281s-3.93,22.31-.93,39.19h3.56A196.25,196.25,0,0,0,301.73,281Z" style="fill:#fff;stroke:#263238;stroke-linecap:round;stroke-linejoin:round"></path><path d="M301.73,281s-3.75-3-2.25-6.75a34.26,34.26,0,0,1,3.19-6.19s.56,3.94,1.31,7.32S301.73,281,301.73,281Z" style="fill:#F1C6AF"></path><path d="M313.73,281s-3.93,22.31-.94,39.19h3.57A197.12,197.12,0,0,0,313.73,281Z" style="fill:#fff;stroke:#263238;stroke-linecap:round;stroke-linejoin:round"></path><path d="M313.73,281s-3.75-3-2.25-6.75a34.26,34.26,0,0,1,3.19-6.19s.56,3.94,1.31,7.32S313.73,281,313.73,281Z" style="fill:#F1C6AF"></path><path d="M325.73,281s-3.94,22.31-.94,39.19h3.57A197.12,197.12,0,0,0,325.73,281Z" style="fill:#fff;stroke:#263238;stroke-linecap:round;stroke-linejoin:round"></path><path d="M325.73,281s-3.75-3-2.25-6.75a34.26,34.26,0,0,1,3.19-6.19s.56,3.94,1.31,7.32S325.73,281,325.73,281Z" style="fill:#F1C6AF"></path><path d="M268.68,316.05H335a4.33,4.33,0,0,1,4.33,4.33v32.28a0,0,0,0,1,0,0h-75a0,0,0,0,1,0,0V320.38A4.33,4.33,0,0,1,268.68,316.05Z" style="fill:#F1C6AF;stroke:#263238;stroke-linecap:round;stroke-linejoin:round"></path><path d="M334,316.05H269.62a5.26,5.26,0,0,0-5.26,5.27v14.76h1a6.87,6.87,0,0,0,6.87-6.86v-.14a4.63,4.63,0,0,1,9.26,0v6a3.77,3.77,0,0,0,7.54,0v-9.36a2.37,2.37,0,0,1,2.37-2.37h3.87a2.37,2.37,0,0,1,2.37,2.37,5,5,0,0,0,9.91,0v-1.08a2.37,2.37,0,1,1,4.74,0v5.92a4.85,4.85,0,1,0,9.69,0v-3.77h4.41a2.27,2.27,0,0,0,2.27-2.26,2.26,2.26,0,0,1,2.26-2.26,2.9,2.9,0,0,1,2.9,2.91v4.05a4.89,4.89,0,0,0,4.89,4.89h.61V321.32A5.27,5.27,0,0,0,334,316.05Z" style="fill:#263238;stroke:#263238;stroke-linecap:round;stroke-linejoin:round"></path><circle cx="302.97" cy="340.09" r="2.9" style="fill:#fff;stroke:#263238;stroke-linecap:round;stroke-linejoin:round"></circle><path d="M287.65,321.45a2.9,2.9,0,1,0-2.9,2.9A2.9,2.9,0,0,0,287.65,321.45Z" style="fill:#fff;stroke:#263238;stroke-linecap:round;stroke-linejoin:round"></path><circle cx="332.39" cy="339.26" r="2.07" style="fill:#fff;stroke:#263238;stroke-linecap:round;stroke-linejoin:round"></circle><circle cx="314.87" cy="320.15" r="2.07" style="fill:#fff;stroke:#263238;stroke-linecap:round;stroke-linejoin:round"></circle><path d="M274.8,343a2.07,2.07,0,1,0-2.07,2.07A2.07,2.07,0,0,0,274.8,343Z" style="fill:#fff;stroke:#263238;stroke-linecap:round;stroke-linejoin:round"></path><circle cx="333.22" cy="326.83" r="2.07" style="fill:#fff;stroke:#263238;stroke-linecap:round;stroke-linejoin:round"></circle><circle cx="281.43" cy="332.22" r="2.07" style="fill:#fff;stroke:#263238;stroke-linecap:round;stroke-linejoin:round"></circle><path d="M253.76,350.51H349.9a6.74,6.74,0,0,1,6.74,6.74V407.8a0,0,0,0,1,0,0H247a0,0,0,0,1,0,0V357.26A6.74,6.74,0,0,1,253.76,350.51Z" style="fill:#F1C6AF;stroke:#263238;stroke-linecap:round;stroke-linejoin:round"></path><path d="M348.44,350.51H255.22a8.21,8.21,0,0,0-8.2,8.21v26.69h2.6A5.38,5.38,0,0,0,255,380V369.57a2.26,2.26,0,1,1,4.52,0V373a4.63,4.63,0,0,0,9.26,0v-5.71a5,5,0,0,1,5-4.95h0a5,5,0,0,1,5,4.95v13a4.85,4.85,0,1,0,9.69,0V367a.75.75,0,0,1,.75-.75h0a7,7,0,0,0,7-7,1.83,1.83,0,0,1,1.83-1.83h4.91a4.89,4.89,0,0,1,4.89,4.89V368a3.24,3.24,0,0,0,6.47,0v-1.14a4.89,4.89,0,0,1,4.89-4.89h.72a6.45,6.45,0,0,1,6.45,6.45v7.87a3.12,3.12,0,0,0,6.24,0v-6.57a5.17,5.17,0,0,1,10.34,0V383.9a2.8,2.8,0,0,0,5.6,0V375a6.61,6.61,0,0,1,6.6-6.6h1.58v-9.67A8.21,8.21,0,0,0,348.44,350.51Z" style="fill:#263238;stroke:#263238;stroke-linecap:round;stroke-linejoin:round"></path><path d="M262.79,391.46a2.9,2.9,0,1,0-2.9,2.9A2.9,2.9,0,0,0,262.79,391.46Z" style="fill:#fff;stroke:#263238;stroke-linecap:round;stroke-linejoin:round"></path><path d="M284.33,371.16a2.9,2.9,0,1,0-2.9,2.9A2.9,2.9,0,0,0,284.33,371.16Z" style="fill:#fff;stroke:#263238;stroke-linecap:round;stroke-linejoin:round"></path><circle cx="312.92" cy="387.32" r="2.9" style="fill:#fff;stroke:#263238;stroke-linecap:round;stroke-linejoin:round"></circle><circle cx="352.69" cy="366.19" r="2.9" style="fill:#fff;stroke:#263238;stroke-linecap:round;stroke-linejoin:round"></circle><path d="M293.86,393.12a2.07,2.07,0,1,0-2.07,2.07A2.07,2.07,0,0,0,293.86,393.12Z" style="fill:#fff;stroke:#263238;stroke-linecap:round;stroke-linejoin:round"></path><path d="M267.34,369.09a2.07,2.07,0,1,0-2.07,2.07A2.07,2.07,0,0,0,267.34,369.09Z" style="fill:#fff;stroke:#263238;stroke-linecap:round;stroke-linejoin:round"></path><circle cx="276.87" cy="388.15" r="2.07" style="fill:#fff;stroke:#263238;stroke-linecap:round;stroke-linejoin:round"></circle><path d="M308,370.75a2.08,2.08,0,1,0-2.07,2.07A2.07,2.07,0,0,0,308,370.75Z" style="fill:#fff;stroke:#263238;stroke-linecap:round;stroke-linejoin:round"></path><circle cx="322.45" cy="396.85" r="2.07" style="fill:#fff;stroke:#263238;stroke-linecap:round;stroke-linejoin:round"></circle><path d="M339.43,392.71a2.07,2.07,0,1,0-2.07,2.07A2.07,2.07,0,0,0,339.43,392.71Z" style="fill:#fff;stroke:#263238;stroke-linecap:round;stroke-linejoin:round"></path><path d="M294.69,357.49a2.07,2.07,0,1,0-2.07,2.07A2.07,2.07,0,0,0,294.69,357.49Z" style="fill:#fff;stroke:#263238;stroke-linecap:round;stroke-linejoin:round"></path><circle cx="330.32" cy="359.98" r="2.07" style="fill:#fff;stroke:#263238;stroke-linecap:round;stroke-linejoin:round"></circle><rect x="241.2" y="405.22" width="119.32" height="5.82" style="fill:#fff;stroke:#263238;stroke-linecap:round;stroke-linejoin:round"></rect></g></svg>
