<svg xmlns="http://www.w3.org/2000/svg" viewBox="0 0 500 500"><g id="freepik--background-complete--inject-74"><rect y="382.4" width="500" height="0.25" style="fill:#ebebeb"></rect><rect x="416.78" y="398.49" width="33.12" height="0.25" style="fill:#ebebeb"></rect><rect x="322.53" y="401.21" width="8.69" height="0.25" style="fill:#ebebeb"></rect><rect x="396.59" y="389.21" width="19.19" height="0.25" style="fill:#ebebeb"></rect><rect x="52.46" y="390.89" width="43.19" height="0.25" style="fill:#ebebeb"></rect><rect x="104.56" y="390.89" width="6.33" height="0.25" style="fill:#ebebeb"></rect><rect x="131.47" y="395.11" width="93.68" height="0.25" style="fill:#ebebeb"></rect><path d="M237,337.8H43.91a5.71,5.71,0,0,1-5.7-5.71V60.66A5.71,5.71,0,0,1,43.91,55H237a5.71,5.71,0,0,1,5.71,5.71V332.09A5.71,5.71,0,0,1,237,337.8ZM43.91,55.2a5.46,5.46,0,0,0-5.45,5.46V332.09a5.46,5.46,0,0,0,5.45,5.46H237a5.47,5.47,0,0,0,5.46-5.46V60.66A5.47,5.47,0,0,0,237,55.2Z" style="fill:#ebebeb"></path><path d="M453.31,337.8H260.21a5.72,5.72,0,0,1-5.71-5.71V60.66A5.72,5.72,0,0,1,260.21,55h193.1A5.71,5.71,0,0,1,459,60.66V332.09A5.71,5.71,0,0,1,453.31,337.8ZM260.21,55.2a5.47,5.47,0,0,0-5.46,5.46V332.09a5.47,5.47,0,0,0,5.46,5.46h193.1a5.47,5.47,0,0,0,5.46-5.46V60.66a5.47,5.47,0,0,0-5.46-5.46Z" style="fill:#ebebeb"></path><path d="M141.47,97.84a4.83,4.83,0,0,0-6.21-4.63A10.28,10.28,0,0,0,125.14,81.5a10.63,10.63,0,0,0-1.89.17,8.94,8.94,0,0,0-16.58,4.52h-.15a8.24,8.24,0,0,0,0,16.48h30.26A4.82,4.82,0,0,0,141.47,97.84Z" style="fill:#fafafa"></path><path d="M437,155.11a4.81,4.81,0,0,0-6.22-4.62,10.45,10.45,0,0,0,.11-1.49,10.23,10.23,0,0,0-10.23-10.22,10.8,10.8,0,0,0-1.89.17,8.94,8.94,0,0,0-16.57,4.52H402a8.24,8.24,0,0,0,0,16.48h30.25A4.83,4.83,0,0,0,437,155.11Z" style="fill:#fafafa"></path><path d="M255,127.2a7.66,7.66,0,0,1,7.65-7.65,7.54,7.54,0,0,1,2.19.33,16.56,16.56,0,0,1-.17-2.35,16.18,16.18,0,0,1,16.19-16.18,16.36,16.36,0,0,1,3,.28,14.14,14.14,0,0,1,26.23,7.15h.23a13,13,0,1,1,0,26.07H262.46A7.64,7.64,0,0,1,255,127.2Z" style="fill:#fafafa"></path><path d="M58.44,203.09a9.19,9.19,0,0,1,11.84-8.81,18.72,18.72,0,0,1-.21-2.82A19.48,19.48,0,0,1,89.55,172a19.23,19.23,0,0,1,3.58.34,17,17,0,0,1,31.57,8.6H125a15.69,15.69,0,0,1,0,31.38H67.36l0,0A9.18,9.18,0,0,1,58.44,203.09Z" style="fill:#fafafa"></path><path d="M200.26,126.55a3,3,0,0,0-3-3,3.09,3.09,0,0,0-.86.13,5.62,5.62,0,0,0,.07-.92,6.36,6.36,0,0,0-6.36-6.36,6.45,6.45,0,0,0-1.17.11,5.56,5.56,0,0,0-10.31,2.81h-.09a5.13,5.13,0,0,0,0,10.25h18.81A3,3,0,0,0,200.26,126.55Z" style="fill:#fafafa"></path><path d="M356.79,88.9a3,3,0,0,1,3-3,2.71,2.71,0,0,1,.86.13,7.14,7.14,0,0,1-.07-.93A6.36,6.36,0,0,1,367,78.74a6.45,6.45,0,0,1,1.17.11,5.56,5.56,0,0,1,10.31,2.81h.09a5.12,5.12,0,0,1,0,10.24H359.71A3,3,0,0,1,356.79,88.9Z" style="fill:#fafafa"></path><path d="M395.43,238.7l-8.64-45.61L376.62,139.4h0L360,238.7h-1.48l-4.17-22a.09.09,0,0,0,0-.05L339.68,139.4h0L323,238.7h-1.47L316.3,211l-3.93-20.76-9.63-50.85h0l-10.65,63.48-6,35.82h-1.47L276,193.09,265.8,139.4h0l-16.65,99.3h-1.47L242.42,211l-4-21.13-9.57-50.48h0L218.2,202.88l-6,35.82h-1.48l-4.17-22a.09.09,0,0,0,0-.05L191.91,139.4h0l-16.65,99.3h-1.48l-8.64-45.61L155,139.4h0l-16.66,99.3h-1.47L131.6,211l-3.86-20.36L118,139.4h0l-10.64,63.48-6,35.82v61H395.43v-61Z" style="fill:#f5f5f5"></path><path d="M424.44,309.09,414.1,254.48l-12.18-64.29h0L382,309.09h-1.77l-5-26.37a.09.09,0,0,0,0-.05L357.69,190.2h0L337.75,309.09H336l-6.28-33.15L325,251.09,313.46,190.2h0v0l-12.75,76-7.19,42.89h-1.76L281.4,254.48l-12.17-64.29h0L249.29,309.09h-1.77l-6.28-33.15-4.79-25.31L225,190.2h0v0l-12.75,76-7.19,42.89h-1.76l-5-26.37a.09.09,0,0,0,0-.05L180.76,190.2h0L160.82,309.09h-1.77l-10.34-54.61-12.18-64.29h0L116.59,309.09h-1.76l-6.28-33.15-4.62-24.38L92.3,190.2h0v0l-12.75,76-7.19,42.89v73.09H424.45V309.09Z" style="fill:#f0f0f0"></path><rect x="378.04" y="307.23" width="6.11" height="74.95" style="fill:#e6e6e6;isolation:isolate"></rect><path d="M402.33,358.18s-26.59,9.4-42.46,0l3.23-19.26,16.71-99.63,19.79,104.5h0Z" style="fill:#ebebeb;isolation:isolate"></path><rect x="289.58" y="307.23" width="6.11" height="74.95" style="fill:#e6e6e6;isolation:isolate"></rect><path d="M313.87,358.18s-26.59,9.41-42.47,0l7.19-42.88,12.75-76L307.59,325Z" style="fill:#ebebeb;isolation:isolate"></path><rect x="422.27" y="307.23" width="6.11" height="74.95" style="fill:#e6e6e6;isolation:isolate"></rect><path d="M446.56,358.19s-26.58,9.39-42.46,0l3.75-22.37L424,239.3l17.52,92.46a.34.34,0,0,1,0,.09.45.45,0,0,1,0,.06Z" style="fill:#ebebeb;isolation:isolate"></path><rect x="245.34" y="307.23" width="6.11" height="74.95" style="fill:#e6e6e6;isolation:isolate"></rect><path d="M269.63,358.18s-26.59,9.4-42.46,0l3.23-19.26,16.71-99.63,19.79,104.5h0Z" style="fill:#ebebeb;isolation:isolate"></path><rect x="201.11" y="307.23" width="6.11" height="74.95" style="fill:#e6e6e6;isolation:isolate"></rect><path d="M225.41,358.18s-26.59,9.41-42.47,0l7.19-42.88,12.75-76L219.13,325Z" style="fill:#ebebeb;isolation:isolate"></path><rect x="333.81" y="307.23" width="6.11" height="74.95" style="fill:#e6e6e6;isolation:isolate"></rect><path d="M358.1,358.19s-26.58,9.39-42.46,0l3.75-22.37,16.19-96.52,17.52,92.46a.34.34,0,0,1,0,.09.45.45,0,0,1,0,.06Z" style="fill:#ebebeb;isolation:isolate"></path><rect x="112.65" y="307.23" width="6.11" height="74.95" style="fill:#e6e6e6;isolation:isolate"></rect><path d="M136.94,358.18s-26.59,9.4-42.46,0l3.23-19.26,16.71-99.63,19.79,104.5h0Z" style="fill:#ebebeb;isolation:isolate"></path><rect x="68.42" y="307.23" width="6.11" height="74.95" style="fill:#e6e6e6;isolation:isolate"></rect><path d="M92.71,358.18s-26.59,9.41-42.47,0l7.19-42.88,12.75-76L86.43,325Z" style="fill:#ebebeb;isolation:isolate"></path><rect x="156.88" y="307.23" width="6.11" height="74.95" style="fill:#e6e6e6;isolation:isolate"></rect><path d="M181.17,358.19s-26.58,9.39-42.46,0l3.75-22.37,16.19-96.52,17.52,92.46a.34.34,0,0,1,0,.09.45.45,0,0,1,0,.06Z" style="fill:#ebebeb;isolation:isolate"></path></g><g id="freepik--Shadow--inject-74"><ellipse id="freepik--path--inject-74" cx="250" cy="416.24" rx="193.89" ry="11.32" style="fill:#f5f5f5"></ellipse></g><g id="freepik--tree-2--inject-74"><path d="M388.37,388.22s-2.73-.14-3-7.63,4.56-9.49,8.27-8.57c0,0-.54-5.33,1.86-5.14s2.24,3.76,2.24,3.76.82-7.56,4.11-7.57,0,8.95,0,8.95,4.54-2.18,6.21,0-2.09,4.74-2.09,4.74,5.89,1.92,3.43,8c0,0,4.11.64,5.26,3.37,0,0-.33-5.52,1.14-5.15s1.15,5.21,1.15,5.21,2.47-5.31,4.6-3.43-1,6.38-1,6.38,4.1-2,4.76.64-2.3,3.63-2.3,3.63,4.27-1,4.27,3.91c0,0,8.21-.78,10.18,3.62H388.54Z" style="fill:#F1C6AF"></path><path d="M388.37,388.22s-2.73-.14-3-7.63,4.56-9.49,8.27-8.57c0,0-.54-5.33,1.86-5.14s2.24,3.76,2.24,3.76.82-7.56,4.11-7.57,0,8.95,0,8.95,4.54-2.18,6.21,0-2.09,4.74-2.09,4.74,5.89,1.92,3.43,8c0,0,4.11.64,5.26,3.37,0,0-.33-5.52,1.14-5.15s1.15,5.21,1.15,5.21,2.47-5.31,4.6-3.43-1,6.38-1,6.38,4.1-2,4.76.64-2.3,3.63-2.3,3.63,4.27-1,4.27,3.91c0,0,8.21-.78,10.18,3.62H388.54Z" style="fill:#fff;opacity:0.4;isolation:isolate"></path><path d="M391,311.51c1.18,19.35,7.56,91,7.56,91l-46.29.43,13-129.49-20.77-6.33-4.36-12.59-17.54-9.92L314,231.47l3.32-.8,9.46,12.16,11.05,2.4L333.13,234h5.26L351.54,260l13.5,2.77,1.23-47.19c13.55,6.33,17.89-4.22,17.89-4.22s3.5,73.9,5.47,79.48h0a28.11,28.11,0,0,0,5.54-4,64.42,64.42,0,0,0,11.8-14l.88-1.38h4.2Z" style="fill:#263238"></path><g style="opacity:0.30000000000000004;isolation:isolate"><path d="M391,311.51c1.18,19.35,7.56,91,7.56,91l-46.29.43,13-129.49-20.77-6.33-4.36-12.59-17.54-9.92L314,231.47l3.32-.8,9.46,12.16,11.05,2.4L333.13,234h5.26L351.54,260l13.5,2.77,1.23-47.19c13.55,6.33,17.89-4.22,17.89-4.22s3.5,73.9,5.47,79.48h0a28.11,28.11,0,0,0,5.54-4,64.42,64.42,0,0,0,11.8-14l.88-1.38h4.2Z" style="fill:#fff"></path></g><path d="M342.17,251.06l5.65,10.88,17.64,4.46s-.06-2.77-.35-6.33l-.07,2.67L351.54,260,338.39,234h-5.26l4.73,11.2-11.05-2.4-9.46-12.16-.46.11,7.29,11Z" style="opacity:0.1;isolation:isolate"></path><polygon points="367.57 338.94 363.41 402.86 370.75 402.8 370.75 352.34 367.57 338.94" style="fill:#fff;opacity:0.2;isolation:isolate"></polygon><path d="M391,311.51l21.08-40.05h-4.2l-.88,1.38a64.42,64.42,0,0,1-11.8,14,28.11,28.11,0,0,1-5.54,4c-2-5.58-5.47-79.48-5.47-79.48a10.9,10.9,0,0,1-7.12,5.91l-.6,71.61c-1.49-3.41-2.79-6.65-2.92-10.19-.44,9.78-1,20.3-1,29.95l8.11,29.91,1.62,64.17,16.28-.15S392.15,330.86,391,311.51Z" style="fill:#fff;opacity:0.1;isolation:isolate"></path><path d="M443.07,186.44a17.58,17.58,0,0,1,11.19,16.72,19.22,19.22,0,0,1-11.69,16.66,21.21,21.21,0,0,1-20.39-2.69c-.3,6.89-5,14.38-11.57,16.46a17.39,17.39,0,0,1-18.52-5.8C374.4,238.9,312.43,243,301.54,195.68c-2.25-9.78,3.2-20.14,11.19-26.22s18.13-8.56,28.09-9.78c9.45-15.05,30.4-23.27,48-20.91s33.27,15.69,38.41,32.7C445.2,171.51,443.33,187.64,443.07,186.44Z" style="fill:#F1C6AF"></path><g style="opacity:0.2;isolation:isolate"><path d="M443.07,186.44a17.58,17.58,0,0,1,11.19,16.72,19.22,19.22,0,0,1-11.69,16.66,21.21,21.21,0,0,1-20.39-2.69c-.3,6.89-5,14.38-11.57,16.46a17.39,17.39,0,0,1-18.52-5.8C374.4,238.9,312.43,243,301.54,195.68c-2.25-9.78,3.2-20.14,11.19-26.22s18.13-8.56,28.09-9.78c9.45-15.05,30.4-23.27,48-20.91s33.27,15.69,38.41,32.7C445.2,171.51,443.33,187.64,443.07,186.44Z"></path></g><path d="M421.2,279.58a9.48,9.48,0,0,1-16.95-2.66c-4.19,2.95-10.67,2.22-14.92-.65a12.73,12.73,0,0,1,5.49-23.17A15.17,15.17,0,0,1,402,241.52,16.52,16.52,0,0,1,416.11,240a17.3,17.3,0,0,1,15.05,4.83,13.63,13.63,0,0,1,4.4,10.61c-.33,4-3.21,7.74-7.09,8.48a11.64,11.64,0,0,1,.4,9.23C427.62,276.15,424.22,278.46,421.2,279.58Z" style="fill:#F1C6AF"></path><path d="M421.2,279.58a9.48,9.48,0,0,1-16.95-2.66c-4.19,2.95-10.67,2.22-14.92-.65a12.73,12.73,0,0,1,5.49-23.17A15.17,15.17,0,0,1,402,241.52,16.52,16.52,0,0,1,416.11,240a17.3,17.3,0,0,1,15.05,4.83,13.63,13.63,0,0,1,4.4,10.61c-.33,4-3.21,7.74-7.09,8.48a11.64,11.64,0,0,1,.4,9.23C427.62,276.15,424.22,278.46,421.2,279.58Z" style="opacity:0.2;isolation:isolate"></path><path d="M332,208A9.47,9.47,0,0,1,344,220.3c5.13.16,9.87,4.64,11.54,9.48A12.73,12.73,0,0,1,337.19,245a15.17,15.17,0,0,1-12.65,5,16.56,16.56,0,0,1-12.22-7.3,17.3,17.3,0,0,1-9.13-12.9A13.63,13.63,0,0,1,306,218.66c2.63-3,7.21-4.26,10.77-2.53a11.64,11.64,0,0,1,5.21-7.62C324.81,206.89,328.91,207.08,332,208Z" style="fill:#F1C6AF"></path><path d="M332,208A9.47,9.47,0,0,1,344,220.3c5.13.16,9.87,4.64,11.54,9.48A12.73,12.73,0,0,1,337.19,245a15.17,15.17,0,0,1-12.65,5,16.56,16.56,0,0,1-12.22-7.3,17.3,17.3,0,0,1-9.13-12.9A13.63,13.63,0,0,1,306,218.66c2.63-3,7.21-4.26,10.77-2.53a11.64,11.64,0,0,1,5.21-7.62C324.81,206.89,328.91,207.08,332,208Z" style="opacity:0.1;isolation:isolate"></path><path d="M391.07,401.09s-17-11-13.78-12.87,14.57,9.14,14.57,9.14-12.53-18.33-9.44-22,11.44,14.93,11.44,14.93-5.67-21.27-1.67-23.61S397.64,388,397.64,388s1.57-25.63,8.9-25.32S403.19,388,403.19,388s10.34-14.84,14-10.63-11.67,16-11.67,16S417,388,417.77,392s-12.66,8.25-12.66,8.25,4.32,1.24,5.31,2.68H387.47S387.1,401.87,391.07,401.09Z" style="fill:#F1C6AF"></path><path d="M391.07,401.09s-17-11-13.78-12.87,14.57,9.14,14.57,9.14-12.53-18.33-9.44-22,11.44,14.93,11.44,14.93-5.67-21.27-1.67-23.61S397.64,388,397.64,388s1.57-25.63,8.9-25.32S403.19,388,403.19,388s10.34-14.84,14-10.63-11.67,16-11.67,16S417,388,417.77,392s-12.66,8.25-12.66,8.25,4.32,1.24,5.31,2.68H387.47S387.1,401.87,391.07,401.09Z" style="fill:#fff;opacity:0.6000000000000001;isolation:isolate"></path></g><g id="freepik--tree-1--inject-74"><path d="M109.31,391.23s-2.18-.12-2.39-6.08,3.62-7.55,6.57-6.82c0,0-.43-4.24,1.49-4.09s1.78,3,1.78,3,.66-6,3.27-6,0,7.12,0,7.12,3.62-1.74,5,0-1.67,3.77-1.67,3.77a4.56,4.56,0,0,1,2.73,6.39s3.27.51,4.18,2.69c0,0-.26-4.39.92-4.1s.91,4.15.91,4.15,2-4.23,3.66-2.74-.78,5.08-.78,5.08,3.27-1.58,3.79.52-1.83,2.88-1.83,2.88,3.4-.78,3.4,3.12c0,0,6.53-.63,8.1,2.88H109.44Z" style="fill:#263238"></path><path d="M109.31,391.23s-2.18-.12-2.39-6.08,3.62-7.55,6.57-6.82c0,0-.43-4.24,1.49-4.09s1.78,3,1.78,3,.66-6,3.27-6,0,7.12,0,7.12,3.62-1.74,5,0-1.67,3.77-1.67,3.77a4.56,4.56,0,0,1,2.73,6.39s3.27.51,4.18,2.69c0,0-.26-4.39.92-4.1s.91,4.15.91,4.15,2-4.23,3.66-2.74-.78,5.08-.78,5.08,3.27-1.58,3.79.52-1.83,2.88-1.83,2.88,3.4-.78,3.4,3.12c0,0,6.53-.63,8.1,2.88H109.44Z" style="fill:#fff;opacity:0.4;isolation:isolate"></path><path d="M111.46,401.48s-13.54-8.77-11-10.25,11.59,7.27,11.59,7.27-10-14.59-7.5-17.51,9.1,11.89,9.1,11.89-4.52-16.94-1.33-18.8,4.34,17,4.34,17,1.24-20.4,7.08-20.15-2.66,20.15-2.66,20.15,8.23-11.81,11.15-8.46S123,395.37,123,395.37s9.13-4.3,9.74-1.11-10.07,6.57-10.07,6.57,3.43,1,4.22,2.13H108.59S108.3,402.09,111.46,401.48Z" style="fill:#263238"></path><path d="M111.46,401.48s-13.54-8.77-11-10.25,11.59,7.27,11.59,7.27-10-14.59-7.5-17.51,9.1,11.89,9.1,11.89-4.52-16.94-1.33-18.8,4.34,17,4.34,17,1.24-20.4,7.08-20.15-2.66,20.15-2.66,20.15,8.23-11.81,11.15-8.46S123,395.37,123,395.37s9.13-4.3,9.74-1.11-10.07,6.57-10.07,6.57,3.43,1,4.22,2.13H108.59S108.3,402.09,111.46,401.48Z" style="fill:#fff;opacity:0.6000000000000001;isolation:isolate"></path><path d="M99.25,391.23s2.18-.12,2.39-6.08-3.62-7.55-6.57-6.82c0,0,.43-4.24-1.49-4.09s-1.78,3-1.78,3-.66-6-3.27-6,0,7.12,0,7.12-3.62-1.74-5,0,1.67,3.77,1.67,3.77a4.56,4.56,0,0,0-2.73,6.39s-3.27.51-4.18,2.69c0,0,.26-4.39-.92-4.1s-.91,4.15-.91,4.15-2-4.23-3.66-2.74.78,5.08.78,5.08-3.27-1.58-3.79.52S71.67,397,71.67,397s-3.4-.78-3.4,3.12c0,0-6.53-.63-8.1,2.88h39Z" style="fill:#F1C6AF"></path><path d="M99.25,391.23s2.18-.12,2.39-6.08-3.62-7.55-6.57-6.82c0,0,.43-4.24-1.49-4.09s-1.78,3-1.78,3-.66-6-3.27-6,0,7.12,0,7.12-3.62-1.74-5,0,1.67,3.77,1.67,3.77a4.56,4.56,0,0,0-2.73,6.39s-3.27.51-4.18,2.69c0,0,.26-4.39-.92-4.1s-.91,4.15-.91,4.15-2-4.23-3.66-2.74.78,5.08.78,5.08-3.27-1.58-3.79.52S71.67,397,71.67,397s-3.4-.78-3.4,3.12c0,0-6.53-.63-8.1,2.88h39Z" style="fill:#fff;opacity:0.4;isolation:isolate"></path><path d="M91.42,330.16c-.94,15.41-6,72.47-6,72.47l36.85.34L111.87,299.89l16.53-5,3.47-10,14-7.9,6.82-10.48-2.63-.64-7.54,9.68-8.79,1.91,3.76-8.91h-4.19L122.8,289.14l-10.74,2.2-1-37.57c-10.79,5-14.24-3.35-14.24-3.35s-2.79,58.82-4.36,63.27h0a23,23,0,0,1-4.41-3.19,51.6,51.6,0,0,1-9.39-11.12l-.69-1.1H74.64Z" style="fill:#263238"></path><g style="opacity:0.30000000000000004;isolation:isolate"><path d="M91.42,330.16c-.94,15.41-6,72.47-6,72.47l36.85.34L111.87,299.89l16.53-5,3.47-10,14-7.9,6.82-10.48-2.63-.64-7.54,9.68-8.79,1.91,3.76-8.91h-4.19L122.8,289.14l-10.74,2.2-1-37.57c-10.79,5-14.24-3.35-14.24-3.35s-2.79,58.82-4.36,63.27h0a23,23,0,0,1-4.41-3.19,51.6,51.6,0,0,1-9.39-11.12l-.69-1.1H74.64Z" style="fill:#fff"></path></g><path d="M130.26,282.05l-4.49,8.65-14,3.56s0-2.21.28-5l0,2.12,10.74-2.2,10.47-20.65h4.19l-3.76,8.91,8.79-1.91,7.54-9.68.36.09-5.8,8.79Z" style="opacity:0.1;isolation:isolate"></path><polygon points="110.04 352 113.36 402.88 107.51 402.83 107.51 362.67 110.04 352" style="fill:#fff;opacity:0.2;isolation:isolate"></polygon><path d="M91.42,330.16,74.64,298.28H78l.69,1.1a51.6,51.6,0,0,0,9.39,11.12,23,23,0,0,0,4.41,3.19c1.57-4.45,4.36-63.27,4.36-63.27a8.71,8.71,0,0,0,5.67,4.7q.22,28.5.47,57a22.32,22.32,0,0,0,2.33-8.11c.35,7.78.83,16.15.8,23.83l-6.46,23.82-1.29,51.08-13-.12S90.48,345.57,91.42,330.16Z" style="fill:#fff;opacity:0.1;isolation:isolate"></path><path d="M50,230.6A14,14,0,0,0,41,243.91a15.31,15.31,0,0,0,9.31,13.27A16.92,16.92,0,0,0,66.58,255c.23,5.48,4,11.44,9.2,13.1a13.84,13.84,0,0,0,14.74-4.62c14.09,8.85,63.42,12.13,72.09-25.56,1.79-7.79-2.55-16-8.91-20.87s-14.43-6.82-22.36-7.79c-7.52-12-24.2-18.52-38.22-16.64a38,38,0,0,0-30.58,26C48.25,218.72,49.74,231.56,50,230.6Z" style="fill:#F1C6AF"></path><g style="opacity:0.2;isolation:isolate"><path d="M50,230.6A14,14,0,0,0,41,243.91a15.31,15.31,0,0,0,9.31,13.27A16.92,16.92,0,0,0,66.58,255c.23,5.48,4,11.44,9.2,13.1a13.84,13.84,0,0,0,14.74-4.62c14.09,8.85,63.42,12.13,72.09-25.56,1.79-7.79-2.55-16-8.91-20.87s-14.43-6.82-22.36-7.79c-7.52-12-24.2-18.52-38.22-16.64a38,38,0,0,0-30.58,26C48.25,218.72,49.74,231.56,50,230.6Z"></path></g><path d="M67.35,304.75a7.55,7.55,0,0,0,13.49-2.12c3.34,2.35,8.5,1.77,11.88-.52a10.14,10.14,0,0,0-4.37-18.45,12.06,12.06,0,0,0-5.68-9.21,13.14,13.14,0,0,0-11.26-1.19,13.78,13.78,0,0,0-12,3.85,10.87,10.87,0,0,0-3.51,8.45,7.52,7.52,0,0,0,5.65,6.75,9.25,9.25,0,0,0-.32,7.34C62.25,302,65,303.85,67.35,304.75Z" style="fill:#F1C6AF"></path><path d="M67.35,304.75a7.55,7.55,0,0,0,13.49-2.12c3.34,2.35,8.5,1.77,11.88-.52a10.14,10.14,0,0,0-4.37-18.45,12.06,12.06,0,0,0-5.68-9.21,13.14,13.14,0,0,0-11.26-1.19,13.78,13.78,0,0,0-12,3.85,10.87,10.87,0,0,0-3.51,8.45,7.52,7.52,0,0,0,5.65,6.75,9.25,9.25,0,0,0-.32,7.34C62.25,302,65,303.85,67.35,304.75Z" style="opacity:0.2;isolation:isolate"></path><path d="M138.36,247.76a7.54,7.54,0,0,0-9.51,9.8c-4.08.13-7.86,3.69-9.19,7.55a10.13,10.13,0,0,0,14.57,12.12,12,12,0,0,0,10.07,4,13.15,13.15,0,0,0,9.72-5.81,13.8,13.8,0,0,0,7.28-10.27,10.88,10.88,0,0,0-2.27-8.86,7.52,7.52,0,0,0-8.58-2,9.23,9.23,0,0,0-4.15-6.07C144.09,246.89,140.82,247,138.36,247.76Z" style="fill:#F1C6AF"></path><path d="M138.36,247.76a7.54,7.54,0,0,0-9.51,9.8c-4.08.13-7.86,3.69-9.19,7.55a10.13,10.13,0,0,0,14.57,12.12,12,12,0,0,0,10.07,4,13.15,13.15,0,0,0,9.72-5.81,13.8,13.8,0,0,0,7.28-10.27,10.88,10.88,0,0,0-2.27-8.86,7.52,7.52,0,0,0-8.58-2,9.23,9.23,0,0,0-4.15-6.07C144.09,246.89,140.82,247,138.36,247.76Z" style="opacity:0.1;isolation:isolate"></path><path d="M97.1,401.48s13.54-8.77,11-10.25-11.59,7.27-11.59,7.27,10-14.59,7.5-17.51-9.1,11.89-9.1,11.89,4.52-16.94,1.33-18.8-4.34,17-4.34,17-1.24-20.4-7.08-20.15,2.66,20.15,2.66,20.15-8.23-11.81-11.15-8.46,9.29,12.77,9.29,12.77-9.13-4.3-9.74-1.11,10.07,6.57,10.07,6.57-3.43,1-4.23,2.13H100S100.26,402.09,97.1,401.48Z" style="fill:#F1C6AF"></path><path d="M97.1,401.48s13.54-8.77,11-10.25-11.59,7.27-11.59,7.27,10-14.59,7.5-17.51-9.1,11.89-9.1,11.89,4.52-16.94,1.33-18.8-4.34,17-4.34,17-1.24-20.4-7.08-20.15,2.66,20.15,2.66,20.15-8.23-11.81-11.15-8.46,9.29,12.77,9.29,12.77-9.13-4.3-9.74-1.11,10.07,6.57,10.07,6.57-3.43,1-4.23,2.13H100S100.26,402.09,97.1,401.48Z" style="fill:#fff;opacity:0.6000000000000001;isolation:isolate"></path></g><g id="freepik--Cabin--inject-74"><polygon points="327.25 228.87 284.58 301.23 95.02 301.23 137.69 228.87 327.25 228.87" style="fill:#263238"></polygon><polygon points="327.25 228.87 284.58 301.23 97.87 301.23 140.54 228.87 327.25 228.87" style="opacity:0.5;isolation:isolate"></polygon><rect x="91.54" y="298.3" width="189.63" height="2.94" style="fill:#263238"></rect><rect x="91.54" y="298.3" width="2.85" height="2.85" style="fill:#fff;opacity:0.2;isolation:isolate"></rect><polygon points="184.62 236.36 184.62 415.53 108.93 415.53 108.93 297.84 145.19 236.36 184.62 236.36" style="fill:#F1C6AF"></polygon><path d="M184.62,236.35V415.53H108.93V297.84l2.83-4.8.51-.86,1-1.77s0,0,0,0l.36-.59,1.87-3.15.5-.86.85-1.43.45-.74s0,0,0,0l2-3.33.51-.86,3.27-5.55.5-.85.73-1.25v0l.16-.27,2.37-4,.5-.83,1-1.67s0,0,0,0l.47-.79,1.8-3.06.5-.85,3.27-5.55.51-.85,1.7-2.89.44-.75,1.13-1.9.49-.85,1.33-2.25.33-.56,1.61-2.73.51-.86,2.74-4.66Z" style="fill:#fff;opacity:0.30000000000000004;isolation:isolate"></path><rect x="184.62" y="288.77" width="168.51" height="126.76" transform="translate(537.74 704.3) rotate(180)" style="fill:#F1C6AF"></rect><rect x="184.62" y="288.77" width="168.51" height="126.76" transform="translate(537.74 704.3) rotate(180)" style="fill:#fff;opacity:0.5;isolation:isolate"></rect><g style="opacity:0.30000000000000004"><rect x="109.09" y="305.93" width="244.04" height="0.5"></rect><rect x="109.09" y="311.14" width="244.04" height="0.5"></rect><path d="M109.09,316.84h14.7c-1.3.07-2.59.18-3.88.33a40.33,40.33,0,0,1-7.28.42,32.58,32.58,0,0,0,7.32,0c2.43-.21,4.85-.35,7.29-.36s4.87,0,7.31.09l7.31.23c-2.43-.24-4.86-.46-7.3-.6l-1.5-.06H353.13v-.5h-244Z"></path><rect x="109.09" y="326.74" width="244.04" height="0.5"></rect><rect x="109.09" y="331.94" width="244.04" height="0.5"></rect><rect x="109.09" y="342.34" width="244.04" height="0.5"></rect><rect x="109.09" y="352.74" width="244.04" height="0.5"></rect><rect x="109.09" y="357.95" width="244.04" height="0.5"></rect><path d="M109.09,363.65h76c1.19.12,2.39.07,3.55.13a46.44,46.44,0,0,1,5,.52c1.66.2,3.33.44,5,.5a16.25,16.25,0,0,0,5-.51,20.34,20.34,0,0,1-5,.14c-1.66-.13-3.31-.36-5-.6-.5-.07-1-.13-1.51-.18h161v-.5h-244Z"></path><rect x="109.09" y="368.35" width="244.04" height="0.5"></rect><rect x="109.09" y="373.55" width="244.04" height="0.5"></rect><rect x="109.09" y="378.75" width="244.04" height="0.5"></rect><rect x="109.09" y="383.95" width="244.04" height="0.5"></rect><rect x="109.09" y="389.15" width="244.04" height="0.5"></rect><rect x="109.09" y="394.35" width="244.04" height="0.5"></rect><path d="M167.8,329.5a37.76,37.76,0,0,1,4.75-.31c1.59,0,3.18.14,4.77.28-1.58-.21-3.16-.43-4.76-.51a36.56,36.56,0,0,0-4.8.18,82.09,82.09,0,0,1-9.54.4l-9.56-.15c-1.6,0-3.2,0-4.8.1s-3.18.25-4.77.45c6.38-.51,12.74,0,19.13.07A73,73,0,0,0,167.8,329.5Z"></path><path d="M284.92,333.31a37.76,37.76,0,0,1,4.75-.31c1.59,0,3.18.14,4.77.28-1.58-.21-3.16-.43-4.76-.51a36.56,36.56,0,0,0-4.8.18,82.09,82.09,0,0,1-9.54.4l-9.56-.15c-1.6,0-3.2,0-4.8.1s-3.18.25-4.77.45c6.37-.51,12.74,0,19.13.07A73,73,0,0,0,284.92,333.31Z"></path><path d="M124.5,326.46a36.64,36.64,0,0,0,4.93-.92,20.34,20.34,0,0,1,4.93-.36l5,.19q5,.18,10,.28c-3.33-.24-6.66-.46-10-.64-1.66-.11-3.32-.19-5-.26a20.15,20.15,0,0,0-5,.33,36.63,36.63,0,0,1-4.89.94,35.78,35.78,0,0,1-5,.08l-10-.62c3.32.35,6.63.73,10,1A32.49,32.49,0,0,0,124.5,326.46Z"></path><path d="M128.21,313.09a20.26,20.26,0,0,0-5-.14c-1.66.13-3.32.37-5,.61a40.28,40.28,0,0,1-5,.4c-1.46,0-2.87-.16-4.3,0v-.09a36.16,36.16,0,0,1,4.29-.23,46.26,46.26,0,0,0,5-.52c1.66-.2,3.33-.44,5-.49A15.85,15.85,0,0,1,128.21,313.09Z"></path><path d="M124.68,309.64c-2-.14-4-.25-5.93-.21,2,.33,3.93.53,5.9.69s3.94.25,5.93.22C128.63,310,126.66,309.8,124.68,309.64Z"></path><path d="M164.37,303h.91c.29,0,.57.09.92.1.7,0,1.26-.2,1.87-.25a14.19,14.19,0,0,1,1.85,0,6.16,6.16,0,0,0-1.86-.32,16.92,16.92,0,0,0-1.84.15c-.27,0-.59-.1-.92-.08a7.46,7.46,0,0,0-1,.08l-.63.09a19.75,19.75,0,0,1-.06-6.9,36.08,36.08,0,0,0,.48-7.06c-.1-1.19-.34-2.35-.52-3.5s-.29-2.31-.38-3.48c-.15-2.33-.13-4.68-.14-7a63.71,63.71,0,0,0-.22,7.05,29.85,29.85,0,0,0,.31,3.53c.18,1.16.39,2.31.48,3.47a41,41,0,0,1-.37,7,17.46,17.46,0,0,0,.41,6.94c-.4.05-.8.12-1.21.21C163.12,303,163.74,303,164.37,303Z"></path><path d="M112.91,303.79a3.38,3.38,0,0,0-1.77-.77,3.44,3.44,0,0,0-1.9.26c.64.08,1.24.12,1.84.21S112.27,303.69,112.91,303.79Z"></path><path d="M114.7,359.89c2-.06,4-.16,5.92-.4-2-.13-4-.12-5.93-.08s-4,.16-5.92.4C110.75,359.94,112.73,359.93,114.7,359.89Z"></path><path d="M172.31,355.25c1.67,0,3.34.12,5,.11a23.68,23.68,0,0,0-5-.58,13.49,13.49,0,0,0-2.54.24c-.85.16-1.63.45-2.47.54a11.14,11.14,0,0,0,2.52-.18C170.65,355.3,171.48,355.26,172.31,355.25Z"></path><path d="M136.23,356c-2.35,0-4.7,0-7,.14-1.16.08-2.33.19-3.48.38s-2.31.42-3.5.52a38.51,38.51,0,0,1-7-.47,21,21,0,0,0-6.23-.09v-.06a19.11,19.11,0,0,1,6.27-.22,39.84,39.84,0,0,0,7,.37c1.16-.09,2.31-.31,3.47-.48a29.85,29.85,0,0,1,3.53-.31A64,64,0,0,1,136.23,356Z"></path><path d="M150,360.76c1.19-.1,2.35-.33,3.5-.52s2.31-.29,3.48-.38c2.33-.15,4.68-.13,7-.14a66.25,66.25,0,0,0-7.05-.22,29.51,29.51,0,0,0-3.52.32c-1.17.17-2.32.39-3.48.47a40,40,0,0,1-7-.37,17.43,17.43,0,0,0-7,.43,19.67,19.67,0,0,1,7-.07A36.08,36.08,0,0,0,150,360.76Z"></path><path d="M118.57,351.83H120a7.39,7.39,0,0,1,1.41,0,12.84,12.84,0,0,0-2.82-.38c-.94-.08-1.89-.12-2.83-.16a16.36,16.36,0,0,0-5.66.46,34.27,34.27,0,0,1,5.64,0C116.68,351.82,117.62,351.84,118.57,351.83Z"></path><path d="M178.71,309.69a13.29,13.29,0,0,0-2.6-.05,14.12,14.12,0,0,0-2.56.43,13.31,13.31,0,0,0,2.6.05A13.17,13.17,0,0,0,178.71,309.69Z"></path><path d="M147.67,366.37a34.86,34.86,0,0,0-4.32.31,39.09,39.09,0,0,0,8.65-.14A37,37,0,0,0,147.67,366.37Z"></path><path d="M167.82,341c-2.58-.24-5.16-.29-7.75-.35s-5.18,0-7.76.13c2.59.23,5.17.28,7.75.34S165.23,341.13,167.82,341Z"></path><path d="M154.49,337.14a18,18,0,0,0-5.92-.86c-2.06,0-4.09,0-6.14-.14a24.86,24.86,0,0,0,6.14.61,35.91,35.91,0,0,1,5.68.39H118.72a4.49,4.49,0,0,0-2-.28c-.78,0-1.5.1-2.26.13s-1.77.11-2.66.15h-2.66v.5h244v-.5Z"></path><path d="M174.68,320.17a14.15,14.15,0,0,0-4.59-.12,30,30,0,0,1-4.54.21,12,12,0,0,0,4.59.26C171.66,320.38,173.15,320.17,174.68,320.17Z"></path><path d="M124.75,343.78c-2-.08-3.89,0-5.83.08s-3.89.26-5.82.55c2,.08,3.9,0,5.84-.08S122.82,344.07,124.75,343.78Z"></path><path d="M239.55,347.55c-2-.14-3.94-.19-5.91-.19-2.24,0-4.47.11-6.72.19H216.18c-.55,0-1.11-.06-1.66-.11l.92.11H151.86c-1.11-.2-2.24-.35-3.36-.44a33.47,33.47,0,0,0-6.25.08c1.87.12,3.73.21,5.59.36H109.09V348h44.3c.43,0,.84.1,1.27.13l-.51-.13h86.74c.77.06,1.53.12,2.3.2a34.82,34.82,0,0,0,4.79.18c1.25-.06,2.48-.21,3.72-.38H353.13v-.49Zm8.43.64a27.85,27.85,0,0,1-3.16-.15h6.25C250,348.13,249,348.19,248,348.19Z"></path><path d="M153.77,309.36a77.74,77.74,0,0,1,9.53.4,38.45,38.45,0,0,0,4.8.18c1.6-.09,3.19-.3,4.77-.52-1.59.14-3.18.28-4.77.28a36.12,36.12,0,0,1-4.76-.31,74.66,74.66,0,0,0-9.57-.51c-6.4.07-12.76.59-19.13.07q2.37.32,4.77.45c1.59.07,3.19.1,4.79.1Z"></path><path d="M199.89,351.36a36.23,36.23,0,0,1,4.88.95,20.22,20.22,0,0,0,5,.32c1.67-.06,3.33-.15,5-.25q5-.28,10-.65c-3.33.07-6.67.16-10,.28l-5,.19a19.36,19.36,0,0,1-4.93-.36,35.11,35.11,0,0,0-4.93-.91,31.29,31.29,0,0,0-5,0c-3.33.25-6.64.63-10,1l10-.61A34.34,34.34,0,0,1,199.89,351.36Z"></path><path d="M294.88,324.35a36,36,0,0,1,4.89.94,20.23,20.23,0,0,0,5,.33c1.67-.07,3.33-.15,5-.25q5-.28,10-.65-5,.11-10,.28l-5,.19a20.23,20.23,0,0,1-4.92-.36,35.25,35.25,0,0,0-4.94-.91,31.16,31.16,0,0,0-5,0c-3.34.25-6.65.63-10,1l10-.62A35.66,35.66,0,0,1,294.88,324.35Z"></path><path d="M249.56,360.29a38.34,38.34,0,0,1,4.89.95,20.11,20.11,0,0,0,5,.33c1.67-.07,3.33-.15,5-.26,3.33-.18,6.66-.4,10-.64-3.33.06-6.66.16-10,.28l-5,.19a19.82,19.82,0,0,1-4.93-.37,38.26,38.26,0,0,0-4.93-.91,32.49,32.49,0,0,0-5,0c-3.33.25-6.64.63-10,1l10-.62A37.45,37.45,0,0,1,249.56,360.29Z"></path><path d="M282.81,355.9l-5.69-.06a29.32,29.32,0,0,0,5.69.53,31,31,0,0,0,5.69-.5Z"></path><path d="M268,376.74l-5.69-.05a31,31,0,0,0,5.69.53,30.26,30.26,0,0,0,5.69-.51Z"></path><path d="M334.48,328.73l-5.69-.06a29.47,29.47,0,0,0,5.69.53,31,31,0,0,0,5.69-.5Z"></path><path d="M188.9,355.77a35.27,35.27,0,0,0-4.23.23,37.4,37.4,0,0,0,8.46,0A35.27,35.27,0,0,0,188.9,355.77Z"></path><path d="M202.66,360.67c2.45,0,4.89-.05,7.33-.19s4.87-.36,7.3-.6l-7.32.23c-2.43.07-4.87.14-7.3.09s-4.87-.15-7.3-.35a32.58,32.58,0,0,0-7.32-.06,40.39,40.39,0,0,1,7.29.42C197.77,360.49,200.22,360.63,202.66,360.67Z"></path><path d="M200.07,367.26c-2,.16-3.94.36-5.9.7,2,0,4-.08,5.94-.22s3.94-.36,5.9-.69C204,367,202,367.12,200.07,367.26Z"></path><path d="M240.21,385.46c-2,.16-3.94.35-5.9.69,2,0,4-.07,5.94-.22s3.94-.35,5.9-.69C244.16,385.21,242.18,385.32,240.21,385.46Z"></path><path d="M254.65,397.65c-.61,0-1.18-.21-1.87-.26-.35,0-.64.12-.93.11h-.91a16.77,16.77,0,0,0-1.87.06c.62.14,1.23.22,1.85.3a9.55,9.55,0,0,0,1,.08c.33,0,.65-.08.92-.08a14.81,14.81,0,0,0,1.84.14,5.9,5.9,0,0,0,1.86-.31A16.2,16.2,0,0,1,254.65,397.65Z"></path><path d="M190.18,376.82c-.65.09-1.23.21-1.84.29s-1.19.13-1.84.21a3.38,3.38,0,0,0,1.91.26A3.43,3.43,0,0,0,190.18,376.82Z"></path><path d="M273.67,391.87c-.64.1-1.23.22-1.83.29s-1.19.13-1.84.21a3.53,3.53,0,0,0,3.67-.5Z"></path><path d="M196.05,317.89c-2-.24-4-.33-5.92-.39s-3.95-.06-5.93.08c2,.23,3.94.33,5.91.39S194.07,318,196.05,317.89Z"></path><path d="M219.45,322.43c-1.7,0-3.37.12-5,.1a23.07,23.07,0,0,1-2.49-.13,11.74,11.74,0,0,0-2.52-.17c.84.08,1.62.38,2.46.53a13.69,13.69,0,0,0,2.55.25A23.75,23.75,0,0,0,219.45,322.43Z"></path><path d="M341.66,366.19c-1.7,0-3.37.13-5,.11-.83,0-1.66-.05-2.49-.13a11.14,11.14,0,0,0-2.52-.18c.84.09,1.62.38,2.47.54a13.49,13.49,0,0,0,2.54.24A23.68,23.68,0,0,0,341.66,366.19Z"></path><path d="M211.65,321.35c-2.35,0-4.7,0-7-.14-1.17-.09-2.33-.19-3.48-.38s-2.31-.42-3.5-.52a37.7,37.7,0,0,0-7.06.48,19.44,19.44,0,0,1-7-.07,17.43,17.43,0,0,0,7,.43,41,41,0,0,1,7-.37c1.16.09,2.31.31,3.47.48,1,.14,1.94.23,2.92.28H149.31a31.71,31.71,0,0,0-8.26,0H115.87c.61,0,1.22-.08,1.84-.16a37.49,37.49,0,0,0-8.47,0c.62.08,1.23.12,1.85.16h-2v.5h244v-.5H208.53C209.57,321.49,210.61,321.43,211.65,321.35Z"></path><path d="M315.16,350.67c1.15.09,2.31.3,3.47.48a29.85,29.85,0,0,0,3.53.31,63.71,63.71,0,0,0,7-.22c-2.35,0-4.7,0-7-.14-1.17-.09-2.33-.19-3.48-.38s-2.31-.42-3.5-.52a36.87,36.87,0,0,0-7.06.48,19.43,19.43,0,0,1-7-.07,17.43,17.43,0,0,0,7,.43A41,41,0,0,1,315.16,350.67Z"></path><path d="M194,325.91a12.75,12.75,0,0,0,2.81-.38,7.37,7.37,0,0,1-1.41,0l-1.42,0c-.94,0-1.89,0-2.83,0a32.2,32.2,0,0,1-5.64,0,16.31,16.31,0,0,0,5.65.46C192.12,326,193.06,326,194,325.91Z"></path><path d="M230.09,329.21c-2.08.2-4.14.43-6.2.59s-4.13.26-6.22.39a32.73,32.73,0,0,0,6.26.08A32.28,32.28,0,0,0,230.09,329.21Z"></path><path d="M349.65,355.42c-2.08.2-4.13.43-6.2.59s-4.13.26-6.21.39a33.46,33.46,0,0,0,6.25.08A32.15,32.15,0,0,0,349.65,355.42Z"></path><path d="M192,314.8a14.39,14.39,0,0,0-5.17-.39,14.39,14.39,0,0,0,5.17.39Z"></path><path d="M193.32,310.29a37,37,0,0,0-4.33.17,34.86,34.86,0,0,0,4.32.31,36.79,36.79,0,0,0,4.33-.17A36.91,36.91,0,0,0,193.32,310.29Z"></path><path d="M243.25,336.42c-2.59-.16-5.18-.14-7.76-.13s-5.17.11-7.76.35c2.59.16,5.18.13,7.77.12S240.67,336.65,243.25,336.42Z"></path><path d="M336.55,344.34c-2.59-.16-5.18-.14-7.76-.13s-5.17.11-7.75.35c2.58.16,5.17.13,7.76.12S334,344.57,336.55,344.34Z"></path><path d="M224,340.63a25.4,25.4,0,0,0-6.14.61c2.06-.18,4.09-.11,6.15-.13a17.51,17.51,0,0,0,6.09-.93A33.67,33.67,0,0,1,224,340.63Z"></path><path d="M243.44,344.2c-1.53,0-3-.21-4.54-.35a12,12,0,0,0-4.59.26,30,30,0,0,1,4.54.21A14.15,14.15,0,0,0,243.44,344.2Z"></path><path d="M305.73,366.06c-1.53,0-3-.2-4.55-.35a12.19,12.19,0,0,0-4.58.26,28.72,28.72,0,0,1,4.54.22A14.43,14.43,0,0,0,305.73,366.06Z"></path><path d="M194.34,340.17a6.37,6.37,0,0,1-2.22,0c-.73-.1-1.5-.2-2.25-.25a19.15,19.15,0,0,0-4.54.24c1.51.09,3,.13,4.51.24.75,0,1.48.12,2.25.14A4.55,4.55,0,0,0,194.34,340.17Z"></path><path d="M200.18,333.6c-1.93-.29-3.87-.44-5.81-.55s-3.89-.16-5.84-.08c1.93.29,3.87.44,5.81.55S198.23,333.68,200.18,333.6Z"></path><polygon points="116.03 285.79 115.53 286.65 115.53 300.34 116.03 300.34 116.03 285.79"></polygon><path d="M119.81,290c.1.94.22,1.88.33,2.81a46.53,46.53,0,0,1,.52,5,24,24,0,0,0,.39,5,33.5,33.5,0,0,1,0-5,40.14,40.14,0,0,0-.42-5c-.24-1.66-.47-3.31-.6-5a20.85,20.85,0,0,1,.14-5,11.9,11.9,0,0,0-.34,1.7v-5.06l-.51.86v20.09h.51Z"></path><polygon points="123.58 272.99 123.08 273.84 123.08 300.34 123.58 300.34 123.58 272.99"></polygon><polygon points="127.35 266.61 126.85 267.44 126.85 300.34 127.35 300.34 127.35 266.61"></polygon><polygon points="131.12 260.2 130.62 261.05 130.62 300.34 131.12 300.34 131.12 260.2"></polygon><polygon points="134.9 253.8 134.39 254.66 134.39 300.34 134.9 300.34 134.9 253.8"></polygon><polygon points="138.66 247.41 138.17 248.26 138.17 300.34 138.66 300.34 138.66 247.41"></polygon><polygon points="142.44 241.01 141.93 241.87 141.93 300.34 142.44 300.34 142.44 241.01"></polygon><rect x="145.71" y="236.35" width="0.5" height="63.99"></rect><rect x="149.48" y="236.35" width="0.5" height="63.99"></rect><rect x="153.26" y="236.35" width="0.49" height="63.99"></rect><rect x="157.02" y="236.35" width="0.5" height="63.99"></rect><rect x="160.79" y="236.35" width="0.5" height="63.99"></rect><rect x="164.57" y="236.35" width="0.49" height="63.99"></rect><rect x="168.33" y="236.35" width="0.5" height="63.99"></rect><rect x="172.11" y="236.35" width="0.5" height="63.99"></rect><rect x="175.88" y="236.35" width="0.49" height="63.99"></rect><rect x="179.65" y="236.35" width="0.5" height="63.99"></rect><polygon points="112.27 292.18 111.76 293.04 111.76 300.34 112.27 300.34 112.27 292.18"></polygon><path d="M137,271.87c-.52-6.37,0-12.74.07-19.13,0-.86,0-1.72,0-2.58l-.44.75c0,.61,0,1.23,0,1.83l-.15,9.57c0,1.6,0,3.19.1,4.79S136.8,270.29,137,271.87Z"></path><path d="M133.08,286.5a35.83,35.83,0,0,1,.08,5l-.62,10c.35-3.32.73-6.63,1-10a31.29,31.29,0,0,0,0-5,35.11,35.11,0,0,0-.91-4.93,19.82,19.82,0,0,1-.36-4.93l.19-5c.12-3.33.21-6.67.28-10q-.36,5-.65,10c-.1,1.67-.18,3.33-.25,5a20.11,20.11,0,0,0,.33,5A36.63,36.63,0,0,1,133.08,286.5Z"></path><path d="M128.81,265.85v-1.74l-.47.79s0,0,0,0c0,.31,0,.61,0,.91a29.31,29.31,0,0,0,.52,5.69Z"></path><path d="M128.67,297.49a33.32,33.32,0,0,0-.23-4.23,37.4,37.4,0,0,0,0,8.46A35.27,35.27,0,0,0,128.67,297.49Z"></path><path d="M124.66,298.33a33.19,33.19,0,0,0-.06-7.32c-.21-2.42-.35-4.85-.36-7.29s0-4.87.08-7.3l.16-5-.16.27v0c-.14,1.55-.25,3.11-.35,4.66-.14,2.44-.21,4.89-.19,7.33a71.55,71.55,0,0,0,.46,7.32A41.27,41.27,0,0,1,124.66,298.33Z"></path><path d="M117.33,283.62l-.45.74c-.07.63-.13,1.28-.17,1.92-.15,2-.26,4-.22,5.94.33-2,.53-3.93.68-5.9C117.24,285.42,117.3,284.52,117.33,283.62Z"></path><path d="M113.34,292.42a7.28,7.28,0,0,0,.09.95,16.57,16.57,0,0,0,.3,1.85c.06-.62.06-1.25.06-1.87v-.91c0-.29.08-.58.1-.92-.05-.64-.18-1.16-.24-1.72l-.36.59s0,0,0,0c0,.38.11.75.13,1.08S113.33,292.09,113.34,292.42Z"></path><path d="M110.55,299.88c.08-.6.2-1.18.29-1.83a3.48,3.48,0,0,0-.76,1.77,3.39,3.39,0,0,0,.26,1.91C110.42,301.08,110.46,300.49,110.55,299.88Z"></path><path d="M166.86,302.19c.14-2,.13-3.95.09-5.93s-.16-3.94-.4-5.92c-.13,2-.12,4-.08,5.93S166.63,300.23,166.86,302.19Z"></path><path d="M162.21,277a11.13,11.13,0,0,0-.17-2.52,23.07,23.07,0,0,1-.13-2.49c0-1.67.11-3.34.1-5a23.75,23.75,0,0,0-.58,5,13.5,13.5,0,0,0,.25,2.54C161.83,275.37,162.13,276.15,162.21,277Z"></path><path d="M158.85,295.23c0-.94.05-1.89,0-2.83V291a7.37,7.37,0,0,1,0-1.41,12.75,12.75,0,0,0-.38,2.81c-.08.95-.12,1.89-.16,2.84a16.33,16.33,0,0,0,.46,5.65A34.27,34.27,0,0,1,158.85,295.23Z"></path><path d="M154.65,262.5c.15-2.06.38-4.12.58-6.2a33.08,33.08,0,0,0-1.06,6.16,33.57,33.57,0,0,0,.08,6.26C154.38,266.63,154.47,264.57,154.65,262.5Z"></path><path d="M170,299.56a14.39,14.39,0,0,0-.39-5.17,14.39,14.39,0,0,0,.39,5.17Z"></path><path d="M174.15,293.07a36.75,36.75,0,0,0-.31-4.32,36.71,36.71,0,0,0-.17,4.32,34.88,34.88,0,0,0,.31,4.33A37,37,0,0,0,174.15,293.07Z"></path><path d="M148.15,250.9c0-2.58,0-5.17-.12-7.76-.24,2.58-.29,5.17-.35,7.75s0,5.18.13,7.77C148,256.07,148.09,253.49,148.15,250.9Z"></path><path d="M144.26,256.3a17.5,17.5,0,0,0-.92,6.09c0,2.06,0,4.09-.14,6.14a25.27,25.27,0,0,0,.61-6.13A34.59,34.59,0,0,1,144.26,256.3Z"></path><path d="M140.33,252.08a12.2,12.2,0,0,0,.26-4.58c-.09-1-.21-1.93-.27-2.9l-.33.56c0,.79.06,1.59.13,2.37A30.08,30.08,0,0,1,140.33,252.08Z"></path><path d="M143.92,294.3c0,.77.1,1.5.13,2.25.11,1.5.15,3,.24,4.51a18.64,18.64,0,0,0,.24-4.54c-.05-.75-.15-1.52-.25-2.25a6.37,6.37,0,0,1,0-2.22A4.55,4.55,0,0,0,143.92,294.3Z"></path><path d="M151.47,297.86c.08-1.95,0-3.89-.08-5.84s-.26-3.88-.55-5.81c-.08,2,0,3.9.08,5.84S151.18,295.93,151.47,297.86Z"></path></g><rect x="251.09" y="317.68" width="15.99" height="35.89" style="fill:#F1C6AF"></rect><rect x="242.56" y="329.05" width="33.03" height="13.13" transform="translate(594.7 76.54) rotate(90)" style="opacity:0.5;isolation:isolate"></rect><rect x="258.52" y="318.1" width="1.13" height="35.03" style="fill:#F1C6AF"></rect><rect x="251.56" y="328.87" width="15.05" height="1.13" style="fill:#F1C6AF"></rect><rect x="251.56" y="341.24" width="15.05" height="1.13" style="fill:#F1C6AF"></rect><rect x="135.32" y="264.88" width="15.99" height="24.48" style="fill:#F1C6AF"></rect><rect x="132.5" y="270.56" width="21.63" height="13.13" transform="translate(420.44 133.8) rotate(90)" style="opacity:0.5;isolation:isolate"></rect><rect x="142.75" y="265.31" width="1.13" height="23.62" style="fill:#F1C6AF"></rect><rect x="135.79" y="276.56" width="15.05" height="1.13" style="fill:#F1C6AF"></rect><rect x="156.01" y="317.68" width="15.99" height="35.89" style="fill:#F1C6AF"></rect><rect x="147.48" y="329.05" width="33.03" height="13.13" transform="translate(499.62 171.62) rotate(90)" style="opacity:0.5;isolation:isolate"></rect><rect x="163.44" y="318.1" width="1.13" height="35.03" style="fill:#F1C6AF"></rect><rect x="156.48" y="328.87" width="15.05" height="1.13" style="fill:#F1C6AF"></rect><rect x="156.48" y="341.24" width="15.05" height="1.13" style="fill:#F1C6AF"></rect><rect x="183.2" y="298.81" width="2.94" height="100.33" style="fill:#F1C6AF"></rect><rect x="108.66" y="298.81" width="2.94" height="100.33" style="fill:#F1C6AF"></rect><rect x="108.66" y="298.3" width="244.77" height="2.94" style="fill:#F1C6AF"></rect><rect x="351.11" y="298.81" width="2.94" height="100.33" style="fill:#F1C6AF"></rect><rect x="119.88" y="317.68" width="15.99" height="35.89" style="fill:#F1C6AF"></rect><rect x="111.35" y="329.05" width="33.03" height="13.13" transform="translate(463.49 207.75) rotate(90)" style="opacity:0.5;isolation:isolate"></rect><rect x="127.31" y="318.1" width="1.13" height="35.03" style="fill:#F1C6AF"></rect><rect x="120.35" y="328.87" width="15.05" height="1.13" style="fill:#F1C6AF"></rect><rect x="120.35" y="341.24" width="15.05" height="1.13" style="fill:#F1C6AF"></rect><rect x="289.12" y="317.68" width="15.99" height="35.89" style="fill:#F1C6AF"></rect><rect x="280.59" y="329.05" width="33.03" height="13.13" transform="translate(632.73 38.51) rotate(90)" style="opacity:0.5;isolation:isolate"></rect><rect x="296.55" y="318.1" width="1.13" height="35.03" style="fill:#F1C6AF"></rect><rect x="289.59" y="328.87" width="15.05" height="1.13" style="fill:#F1C6AF"></rect><rect x="289.59" y="341.24" width="15.05" height="1.13" style="fill:#F1C6AF"></rect><rect x="327.15" y="317.68" width="15.99" height="35.89" style="fill:#F1C6AF"></rect><rect x="318.62" y="329.05" width="33.03" height="13.13" transform="translate(670.76 0.48) rotate(90)" style="opacity:0.5;isolation:isolate"></rect><rect x="334.58" y="318.1" width="1.13" height="35.03" style="fill:#F1C6AF"></rect><rect x="327.62" y="328.87" width="15.05" height="1.13" style="fill:#F1C6AF"></rect><rect x="327.62" y="341.24" width="15.05" height="1.13" style="fill:#F1C6AF"></rect><rect x="202.78" y="319.1" width="32.29" height="80.04" style="fill:#F1C6AF"></rect><rect x="205.01" y="320.62" width="28.88" height="78.52" style="opacity:0.2;isolation:isolate"></rect><rect x="232.95" y="320.62" width="0.94" height="78.52" style="opacity:0.2;isolation:isolate"></rect><rect x="202.78" y="319.1" width="0.94" height="80.04" style="opacity:0.4;isolation:isolate"></rect><path d="M218.71,332.92v-6.45a6.75,6.75,0,0,0-5.87,6.45Z" style="opacity:0.5;isolation:isolate"></path><path d="M219.78,332.92h5.87a6.75,6.75,0,0,0-5.87-6.45Z" style="opacity:0.5;isolation:isolate"></path><path d="M218.71,334h-5.87a6.74,6.74,0,0,0,5.87,6.45Z" style="opacity:0.5;isolation:isolate"></path><path d="M219.78,334v6.45a6.74,6.74,0,0,0,5.87-6.45Z" style="opacity:0.5;isolation:isolate"></path><rect x="412.1" y="317.78" width="3.26" height="81.99" style="fill:#F1C6AF"></rect><rect x="243.81" y="317.78" width="3.26" height="81.99" style="fill:#F1C6AF"></rect><rect x="86.01" y="398.38" width="334.49" height="17.27" style="fill:#F1C6AF"></rect><rect x="228.82" y="398.38" width="191.68" height="17.27" style="fill:#fff;opacity:0.2;isolation:isolate"></rect><polygon points="308.74 398.38 306.27 398.38 278.7 373.01 281.17 373.01 308.74 398.38" style="fill:#263238"></polygon><polygon points="308.74 398.38 307.51 398.38 279.94 373.01 281.17 373.01 308.74 398.38" style="fill:#fff;opacity:0.2;isolation:isolate"></polygon><polygon points="336.63 398.38 334.17 398.38 306.59 373.01 309.06 373.01 336.63 398.38" style="fill:#263238"></polygon><polygon points="336.63 398.38 335.4 398.38 307.83 373.01 309.06 373.01 336.63 398.38" style="fill:#fff;opacity:0.2;isolation:isolate"></polygon><polygon points="364.52 398.38 362.06 398.38 334.48 373.01 336.95 373.01 364.52 398.38" style="fill:#263238"></polygon><polygon points="364.52 398.38 363.29 398.38 335.72 373.01 336.95 373.01 364.52 398.38" style="fill:#fff;opacity:0.2;isolation:isolate"></polygon><polygon points="392.42 398.38 389.95 398.38 362.38 373.01 364.84 373.01 392.42 398.38" style="fill:#263238"></polygon><polygon points="392.42 398.38 391.18 398.38 363.61 373.01 364.84 373.01 392.42 398.38" style="fill:#fff;opacity:0.2;isolation:isolate"></polygon><polygon points="420.31 398.38 417.84 398.38 390.27 373.01 392.73 373.01 420.31 398.38" style="fill:#263238"></polygon><polygon points="420.31 398.38 419.07 398.38 391.5 373.01 392.73 373.01 420.31 398.38" style="fill:#fff;opacity:0.2;isolation:isolate"></polygon><polygon points="281.49 398.38 279.02 398.38 306.59 373.01 309.06 373.01 281.49 398.38" style="fill:#263238"></polygon><polygon points="281.49 398.38 280.25 398.38 307.83 373.01 309.06 373.01 281.49 398.38" style="fill:#fff;opacity:0.2;isolation:isolate"></polygon><polygon points="309.38 398.38 306.91 398.38 334.48 373.01 336.95 373.01 309.38 398.38" style="fill:#263238"></polygon><polygon points="309.38 398.38 308.14 398.38 335.72 373.01 336.95 373.01 309.38 398.38" style="fill:#fff;opacity:0.2;isolation:isolate"></polygon><polygon points="337.27 398.38 334.8 398.38 362.38 373.01 364.84 373.01 337.27 398.38" style="fill:#263238"></polygon><polygon points="337.27 398.38 336.04 398.38 363.61 373.01 364.84 373.01 337.27 398.38" style="fill:#fff;opacity:0.2;isolation:isolate"></polygon><polygon points="365.16 398.38 362.69 398.38 390.27 373.01 392.73 373.01 365.16 398.38" style="fill:#263238"></polygon><polygon points="365.16 398.38 363.93 398.38 391.5 373.01 392.73 373.01 365.16 398.38" style="fill:#fff;opacity:0.2;isolation:isolate"></polygon><polygon points="393.05 398.38 390.58 398.38 418.16 373.01 420.63 373.01 393.05 398.38" style="fill:#263238"></polygon><polygon points="393.05 398.38 391.82 398.38 419.39 373.01 420.63 373.01 393.05 398.38" style="fill:#fff;opacity:0.2;isolation:isolate"></polygon><rect x="278.7" y="373.01" width="2.47" height="25.38" style="fill:#263238"></rect><rect x="279.94" y="373.01" width="1.23" height="25.38" style="fill:#fff;opacity:0.2;isolation:isolate"></rect><rect x="306.59" y="373.01" width="2.47" height="25.38" style="fill:#263238"></rect><rect x="307.83" y="373.01" width="1.23" height="25.38" style="fill:#fff;opacity:0.2;isolation:isolate"></rect><rect x="334.48" y="373.01" width="2.47" height="25.38" style="fill:#263238"></rect><rect x="335.72" y="373.01" width="1.23" height="25.38" style="fill:#fff;opacity:0.2;isolation:isolate"></rect><rect x="362.37" y="373.01" width="2.47" height="25.38" style="fill:#263238"></rect><rect x="363.61" y="373.01" width="1.23" height="25.38" style="fill:#fff;opacity:0.2;isolation:isolate"></rect><rect x="390.27" y="373.01" width="2.47" height="25.38" style="fill:#263238"></rect><rect x="391.5" y="373.01" width="1.23" height="25.38" style="fill:#fff;opacity:0.2;isolation:isolate"></rect><rect x="418.16" y="373.01" width="2.47" height="25.38" style="fill:#263238"></rect><rect x="419.39" y="373.01" width="1.23" height="25.38" style="fill:#fff;opacity:0.2;isolation:isolate"></rect><rect x="277.12" y="370.78" width="145.89" height="2.94" style="fill:#263238"></rect><rect x="279.98" y="370.78" width="143.04" height="2.94" transform="translate(702.99 744.5) rotate(180)" style="fill:#fff;opacity:0.2;isolation:isolate"></rect><polygon points="198.38 398.38 200.85 398.38 228.43 373.01 225.96 373.01 198.38 398.38" style="fill:#263238"></polygon><polygon points="198.38 398.38 199.62 398.38 227.19 373.01 225.96 373.01 198.38 398.38" style="fill:#fff;opacity:0.2;isolation:isolate"></polygon><polygon points="170.49 398.38 172.96 398.38 200.53 373.01 198.07 373.01 170.49 398.38" style="fill:#263238"></polygon><polygon points="170.49 398.38 171.73 398.38 199.3 373.01 198.07 373.01 170.49 398.38" style="fill:#fff;opacity:0.2;isolation:isolate"></polygon><polygon points="142.6 398.38 145.07 398.38 172.64 373.01 170.18 373.01 142.6 398.38" style="fill:#263238"></polygon><polygon points="142.6 398.38 143.84 398.38 171.41 373.01 170.18 373.01 142.6 398.38" style="fill:#fff;opacity:0.2;isolation:isolate"></polygon><polygon points="114.71 398.38 117.18 398.38 144.75 373.01 142.28 373.01 114.71 398.38" style="fill:#263238"></polygon><polygon points="114.71 398.38 115.94 398.38 143.52 373.01 142.28 373.01 114.71 398.38" style="fill:#fff;opacity:0.2;isolation:isolate"></polygon><polygon points="86.82 398.38 89.29 398.38 116.86 373.01 114.39 373.01 86.82 398.38" style="fill:#263238"></polygon><polygon points="86.82 398.38 88.05 398.38 115.63 373.01 114.39 373.01 86.82 398.38" style="fill:#fff;opacity:0.2;isolation:isolate"></polygon><polygon points="225.64 398.38 228.11 398.38 200.53 373.01 198.07 373.01 225.64 398.38" style="fill:#263238"></polygon><polygon points="225.64 398.38 226.87 398.38 199.3 373.01 198.07 373.01 225.64 398.38" style="fill:#fff;opacity:0.2;isolation:isolate"></polygon><polygon points="197.75 398.38 200.22 398.38 172.64 373.01 170.18 373.01 197.75 398.38" style="fill:#263238"></polygon><polygon points="197.75 398.38 198.98 398.38 171.41 373.01 170.18 373.01 197.75 398.38" style="fill:#fff;opacity:0.2;isolation:isolate"></polygon><polygon points="169.86 398.38 172.32 398.38 144.75 373.01 142.28 373.01 169.86 398.38" style="fill:#263238"></polygon><polygon points="169.86 398.38 171.09 398.38 143.52 373.01 142.28 373.01 169.86 398.38" style="fill:#fff;opacity:0.2;isolation:isolate"></polygon><polygon points="141.97 398.38 144.43 398.38 116.86 373.01 114.39 373.01 141.97 398.38" style="fill:#263238"></polygon><polygon points="141.97 398.38 143.2 398.38 115.63 373.01 114.39 373.01 141.97 398.38" style="fill:#fff;opacity:0.2;isolation:isolate"></polygon><polygon points="114.07 398.38 116.54 398.38 88.97 373.01 86.5 373.01 114.07 398.38" style="fill:#263238"></polygon><polygon points="114.07 398.38 115.31 398.38 87.73 373.01 86.5 373.01 114.07 398.38" style="fill:#fff;opacity:0.2;isolation:isolate"></polygon><rect x="225.96" y="373.01" width="2.47" height="25.38" transform="translate(454.38 771.39) rotate(180)" style="fill:#263238"></rect><rect x="225.96" y="373.01" width="1.23" height="25.38" transform="translate(453.15 771.39) rotate(180)" style="fill:#fff;opacity:0.2;isolation:isolate"></rect><rect x="198.07" y="373.01" width="2.47" height="25.38" transform="translate(398.6 771.39) rotate(180)" style="fill:#263238"></rect><rect x="198.07" y="373.01" width="1.23" height="25.38" transform="translate(397.37 771.39) rotate(180)" style="fill:#fff;opacity:0.2;isolation:isolate"></rect><rect x="170.17" y="373.01" width="2.47" height="25.38" transform="translate(342.82 771.39) rotate(180)" style="fill:#263238"></rect><rect x="170.17" y="373.01" width="1.23" height="25.38" transform="translate(341.58 771.39) rotate(180)" style="fill:#fff;opacity:0.2;isolation:isolate"></rect><rect x="142.28" y="373.01" width="2.47" height="25.38" transform="translate(287.03 771.39) rotate(180)" style="fill:#263238"></rect><rect x="142.28" y="373.01" width="1.23" height="25.38" transform="translate(285.8 771.39) rotate(180)" style="fill:#fff;opacity:0.2;isolation:isolate"></rect><rect x="114.39" y="373.01" width="2.47" height="25.38" transform="translate(231.25 771.39) rotate(180)" style="fill:#263238"></rect><rect x="114.39" y="373.01" width="1.23" height="25.38" transform="translate(230.02 771.39) rotate(180)" style="fill:#fff;opacity:0.2;isolation:isolate"></rect><rect x="86.5" y="373.01" width="2.47" height="25.38" transform="translate(175.47 771.39) rotate(180)" style="fill:#263238"></rect><rect x="86.5" y="373.01" width="1.23" height="25.38" transform="translate(174.24 771.39) rotate(180)" style="fill:#fff;opacity:0.2;isolation:isolate"></rect><rect x="84.11" y="370.78" width="145.89" height="2.94" transform="translate(314.12 744.5) rotate(180)" style="fill:#263238"></rect><rect x="227.15" y="370.78" width="2.85" height="2.85" transform="translate(457.15 744.42) rotate(180)" style="fill:#fff;opacity:0.2;isolation:isolate"></rect><rect x="84.11" y="397.78" width="338.9" height="2.56" style="fill:#263238"></rect><rect x="228.68" y="397.78" width="194.34" height="2.56" style="fill:#fff;opacity:0.2;isolation:isolate"></rect><polygon points="369.85 301.33 180.29 301.33 137.62 228.96 327.18 228.96 369.85 301.33" style="fill:#263238"></polygon><polygon points="369.85 301.33 183.15 301.33 140.48 228.96 327.18 228.96 369.85 301.33" style="fill:#fff;opacity:0.2;isolation:isolate"></polygon><polygon points="431.7 321.27 241.51 321.27 179.65 301.29 369.85 301.29 431.7 319.37 431.7 321.27" style="fill:#263238"></polygon><polygon points="431.7 321.27 241.51 321.27 179.65 301.29 369.85 301.29 431.7 319.37 431.7 321.27" style="fill:#fff;opacity:0.2;isolation:isolate"></polygon><rect x="137.62" y="225.93" width="189.63" height="2.94" style="fill:#263238"></rect><rect x="137.62" y="225.93" width="2.85" height="2.85" style="fill:#fff;opacity:0.2;isolation:isolate"></rect><path d="M157.54,227.36a16.8,16.8,0,0,0,1.17,2.32l1.28,2.26,2.63,4.5,5.28,9,10.55,18,10.43,18,5.16,9,5.09,9.1c-1.86-2.94-3.66-5.91-5.49-8.86l-5.39-8.91c-3.59-6-7.09-12-10.62-17.93s-7-12-10.36-18.08l-5.05-9.12-2.45-4.6A38.83,38.83,0,0,1,157.54,227.36Z" style="opacity:0.2;isolation:isolate"></path><path d="M176.59,227.36a16.8,16.8,0,0,0,1.17,2.32l1.28,2.26,2.63,4.5,5.28,9,10.55,18,10.43,18,5.16,9,5.09,9.1c-1.86-2.94-3.66-5.91-5.49-8.86l-5.39-8.91c-3.59-6-7.09-12-10.62-17.93s-7-12-10.36-18.08l-5-9.12-2.45-4.6A38.83,38.83,0,0,1,176.59,227.36Z" style="opacity:0.2;isolation:isolate"></path><path d="M195.64,227.36a16.8,16.8,0,0,0,1.17,2.32l1.28,2.26,2.63,4.5,5.28,9,10.55,18,10.43,18,5.16,9,5.09,9.1c-1.86-2.94-3.66-5.91-5.49-8.86l-5.39-8.91c-3.59-6-7.09-12-10.62-17.93s-7-12-10.36-18.08l-5.05-9.12-2.45-4.6A38.83,38.83,0,0,1,195.64,227.36Z" style="opacity:0.2;isolation:isolate"></path><path d="M214.69,227.36a16.8,16.8,0,0,0,1.17,2.32l1.28,2.26,2.63,4.5,5.28,9,10.55,18,10.43,18,5.16,9,5.09,9.1c-1.86-2.94-3.66-5.91-5.49-8.86l-5.39-8.91c-3.59-6-7.09-12-10.62-17.93s-7-12-10.36-18.08l-5-9.12-2.45-4.6A38.83,38.83,0,0,1,214.69,227.36Z" style="opacity:0.2;isolation:isolate"></path><path d="M233.74,227.36a16.8,16.8,0,0,0,1.17,2.32l1.28,2.26,2.63,4.5,5.28,9,10.55,18,10.43,18,5.16,9,5.09,9.1c-1.86-2.94-3.66-5.91-5.49-8.86l-5.39-8.91c-3.59-6-7.09-12-10.62-17.93s-7-12-10.36-18.08l-5.05-9.12-2.45-4.6A38.83,38.83,0,0,1,233.74,227.36Z" style="opacity:0.2;isolation:isolate"></path><path d="M252.79,227.36a16.8,16.8,0,0,0,1.17,2.32l1.28,2.26,2.63,4.5,5.28,9,10.55,18,10.43,18,5.16,9,5.09,9.1c-1.86-2.94-3.66-5.91-5.49-8.86l-5.4-8.91c-3.58-6-7.08-12-10.61-17.93s-7-12-10.36-18.08l-5-9.12-2.45-4.6A38.83,38.83,0,0,1,252.79,227.36Z" style="opacity:0.2;isolation:isolate"></path><path d="M271.84,227.36a16.8,16.8,0,0,0,1.17,2.32l1.28,2.26,2.63,4.5,5.28,9,10.55,18,10.43,18,5.16,9,5.09,9.1c-1.86-2.94-3.66-5.91-5.49-8.86l-5.39-8.91c-3.59-6-7.09-12-10.62-17.93s-7-12-10.36-18.08l-5.05-9.12-2.45-4.6A38.83,38.83,0,0,1,271.84,227.36Z" style="opacity:0.2;isolation:isolate"></path><path d="M290.89,227.36a16.8,16.8,0,0,0,1.17,2.32l1.28,2.26,2.63,4.5,5.28,9,10.55,18,10.43,18,5.16,9,5.09,9.1c-1.86-2.94-3.66-5.91-5.49-8.86l-5.4-8.91c-3.58-6-7.08-12-10.61-17.93s-7-12-10.36-18.08l-5.05-9.12-2.45-4.6A38.83,38.83,0,0,1,290.89,227.36Z" style="opacity:0.2;isolation:isolate"></path><path d="M309.94,227.36a16.8,16.8,0,0,0,1.17,2.32l1.28,2.26,2.63,4.5,5.28,9,10.55,18,10.43,18,5.16,9,5.09,9.1c-1.86-2.94-3.66-5.91-5.49-8.86l-5.4-8.91c-3.58-6-7.08-12-10.61-17.93s-7-12-10.36-18.08l-5.05-9.12-2.45-4.6A38.83,38.83,0,0,1,309.94,227.36Z" style="opacity:0.2;isolation:isolate"></path><rect x="142.94" y="234.89" width="189.63" height="2.94" style="fill:#263238"></rect><rect x="142.94" y="234.89" width="2.85" height="2.85" style="fill:#fff;opacity:0.2;isolation:isolate"></rect><rect x="148.27" y="243.84" width="189.63" height="2.94" style="fill:#263238"></rect><rect x="148.27" y="243.84" width="2.85" height="2.85" style="fill:#fff;opacity:0.2;isolation:isolate"></rect><rect x="153.59" y="252.79" width="189.63" height="2.94" style="fill:#263238"></rect><rect x="153.59" y="252.79" width="2.85" height="2.85" style="fill:#fff;opacity:0.2;isolation:isolate"></rect><rect x="158.91" y="261.75" width="189.63" height="2.94" style="fill:#263238"></rect><rect x="158.91" y="261.75" width="2.85" height="2.85" style="fill:#fff;opacity:0.2;isolation:isolate"></rect><rect x="164.23" y="270.7" width="189.63" height="2.94" style="fill:#263238"></rect><rect x="164.23" y="270.7" width="2.85" height="2.85" style="fill:#fff;opacity:0.2;isolation:isolate"></rect><rect x="169.55" y="279.66" width="189.63" height="2.94" style="fill:#263238"></rect><rect x="169.55" y="279.66" width="2.85" height="2.85" style="fill:#fff;opacity:0.2;isolation:isolate"></rect><rect x="174.87" y="288.61" width="189.63" height="2.94" style="fill:#263238"></rect><rect x="174.87" y="288.61" width="2.85" height="2.85" style="fill:#fff;opacity:0.2;isolation:isolate"></rect><rect x="174.22" y="298.3" width="198.18" height="2.94" style="fill:#263238"></rect><rect x="174.22" y="298.3" width="2.85" height="2.85" style="fill:#fff;opacity:0.2;isolation:isolate"></rect><polygon points="431.7 319.37 241.51 319.37 179.65 299.39 369.85 299.39 431.7 319.37" style="fill:#263238"></polygon></g></svg>