<svg xmlns="http://www.w3.org/2000/svg" viewBox="0 0 500 500"><g id="freepik--Floor--inject-30"><ellipse id="freepik--floor--inject-30" cx="249.53" cy="345.84" rx="231.15" ry="133.46" style="fill:#f5f5f5"></ellipse></g><g id="freepik--Shadows--inject-30"><path id="freepik--Shadow--inject-30" d="M428.59,369.86l-60.67-35a1.32,1.32,0,0,1,0-2.5l39-22.48a4.79,4.79,0,0,1,4.33,0l60.66,35a1.32,1.32,0,0,1,0,2.5l-39,22.49A4.79,4.79,0,0,1,428.59,369.86Z" style="fill:#e0e0e0"></path><ellipse id="freepik--shadow--inject-30" cx="165.86" cy="377.6" rx="101.93" ry="58.85" style="fill:#e0e0e0"></ellipse><ellipse id="freepik--shadow--inject-30" cx="262.08" cy="365.69" rx="66.39" ry="38.33" style="fill:#e0e0e0"></ellipse></g><g id="freepik--Plants--inject-30"><g id="freepik--plants--inject-30"><path d="M64.51,327.72l.82-13s-.77-16.61-17.23-31.93c-10-9.31-18.27-4.3-20.34.77s-.35,12.76,9.37,19.95c15.22,11.25,28,29.06,29.66,41.69Z" style="fill:#37474f"></path><path d="M64,324.05a.59.59,0,0,1-.62-.41c-7.49-24.8-29-39.68-29.27-39.83A.56.56,0,0,1,34,283a.58.58,0,0,1,.8-.16c.22.15,22.11,15.25,29.72,40.45a.59.59,0,0,1-.38.72Z" style="fill:#fff"></path><path d="M65.17,328.15a7,7,0,0,0-1.51-3.89c-1.6-1.85-4.4-2.45-5.75-4.5a16.83,16.83,0,0,1-1.28-3.2,10.24,10.24,0,0,0-5.23-5.37,13.79,13.79,0,0,0-7.51-1c-1.93.24-3.8.83-5.73,1.1-6.33.91-12.19-4.9-18.49-1-3.78,2.36-3.52,6.48-1.42,9.93a19,19,0,0,0,4.08,4.63c1.7,1.44,3.49,2.31,3.67,4.81.12,1.82-.45,3.63-.43,5.46a10.47,10.47,0,0,0,4,7.74,18,18,0,0,0,8.18,3.51c2.19.42,4.71.75,5.92,2.62a10.64,10.64,0,0,1,1,3.25,13.28,13.28,0,0,0,7.09,8.31,20.21,20.21,0,0,0,11,1.68,16.75,16.75,0,0,0,8.92-3.32c4.28-3.5,1.82-10.11-1-13.79-1.23-1.62-2.75-3-3.88-4.69-2.26-3.35-1.89-6.25-1.68-10.08A13.36,13.36,0,0,0,65.17,328.15Z" style="fill:#455a64"></path><path d="M68.51,352.79a.47.47,0,0,1-.5-.23C52.7,325,28.14,317.3,27.89,317.22a.48.48,0,0,1-.32-.59.49.49,0,0,1,.6-.32c.25.08,25.17,7.9,40.67,35.79a.47.47,0,0,1-.18.64A.3.3,0,0,1,68.51,352.79Z" style="fill:#fff"></path><path d="M53.91,333.84H53.8c-6.73-.28-16.91,2.42-17,2.45a.46.46,0,0,1-.58-.34.47.47,0,0,1,.33-.58c.42-.11,10.43-2.77,17.3-2.48a.47.47,0,0,1,.07.94Z" style="fill:#fff"></path><path d="M49,329.27h0a.49.49,0,0,1-.53-.41,36.43,36.43,0,0,1,.27-10.22.47.47,0,0,1,.55-.37.47.47,0,0,1,.38.55,35.94,35.94,0,0,0-.25,9.92A.48.48,0,0,1,49,329.27Z" style="fill:#fff"></path></g></g><g id="freepik--Screen--inject-30"><g id="freepik--screen--inject-30"><path d="M460.24,135.55,275.33,28.8c-2.78-1.6-5-.3-5,2.91V178.15a11.15,11.15,0,0,0,5,8.73L460.24,293.63c2.78,1.6,5,.3,5-2.91V144.28A11.15,11.15,0,0,0,460.24,135.55Z" style="fill:#F1C6AF;opacity:0.30000000000000004"></path><path d="M460.24,135.55,275.33,28.8c-2.78-1.6-5-.3-5,2.91V178.15a11.15,11.15,0,0,0,5,8.73L460.24,293.63c2.78,1.6,5,.3,5-2.91V144.28A11.15,11.15,0,0,0,460.24,135.55Z" style="fill:#fff;opacity:0.5"></path><path d="M461.22,266.06V247.3l-12.19-7v14.08L445,252V228.54l-8.13-4.69v9.38l-4.06-2.35v18.76L424.66,245V230.88l-4.06-2.34v-4.69l-4.07-2.35v-4.69l-4.06-2.34v4.69l-4.06-2.35v4.69l-4.06-2.34v4.69l-8.13-4.69V205.09l-12.18-7V221.5L380,219.16V205.09l-8.13-4.7v14.08l-4.06-2.35v-4.69l-8.12-4.69v-9.38l-8.13-4.69v4.69L347.48,191v14.1l-4.06-2.35V184l-4.06-2.35v-4.69l-4.07-2.34v-4.69l-4.06-2.35v4.69l-4.06-2.34v4.69l-4.06-2.35V195.7l-4.06-2.34V184l-12.05-7v4.77l-8.27-4.77v-9.38l-4.07-2.34v-4.69l-4.06-2.35v-4.69l-4.06-2.34v4.68l-4.06-2.34v4.69l-4.06-2.35v9.39l-8.13-4.7v17.63a11.15,11.15,0,0,0,5,8.73L460.24,293.63c2.78,1.6,5,.3,5-2.91V268.41Z" style="fill:#F1C6AF;opacity:0.30000000000000004"></path><g style="opacity:0.30000000000000004"><path d="M273.08,29.12a3.64,3.64,0,0,1,1.75.55L459.74,136.41a10.24,10.24,0,0,1,4.54,7.87V290.72c0,.78-.18,2.59-1.79,2.59a3.64,3.64,0,0,1-1.75-.55L275.83,186a10.2,10.2,0,0,1-4.54-7.87V31.71c0-.78.18-2.59,1.79-2.59m0-1c-1.65,0-2.79,1.31-2.79,3.59V178.15a11.15,11.15,0,0,0,5,8.73L460.24,293.63a4.62,4.62,0,0,0,2.25.68c1.65,0,2.79-1.31,2.79-3.59V144.28a11.15,11.15,0,0,0-5-8.73L275.33,28.8a4.62,4.62,0,0,0-2.25-.68Z" style="fill:#F1C6AF"></path></g><path d="M323.64,104.55l80.17,46.29c4.79,2.76,8.66,9.47,8.66,15v22.21c0,5.52-3.87,7.76-8.66,5l-80.17-46.29c-4.78-2.76-8.66-9.47-8.66-15V109.55C315,104,318.86,101.79,323.64,104.55Z" style="fill:#fff;opacity:0.5"></path><g style="opacity:0.5"><path d="M407.68,194.74a8.34,8.34,0,0,1-4.12-1.26L323.39,147.2c-4.91-2.84-8.91-9.76-8.91-15.44V109.55c0-2.86,1-5,2.79-6s4.15-.82,6.62.61l80.17,46.28c4.92,2.84,8.91,9.76,8.91,15.44v22.21c0,2.86-1,5-2.78,6A5,5,0,0,1,407.68,194.74Zm-87.9-90.88a3.89,3.89,0,0,0-2,.52c-1.47.85-2.29,2.68-2.29,5.17v22.21c0,5.36,3.77,11.89,8.41,14.57l80.17,46.29c2.15,1.24,4.15,1.45,5.63.6s2.28-2.69,2.28-5.17V165.84c0-5.36-3.77-11.89-8.41-14.57L323.39,105A7.37,7.37,0,0,0,319.78,103.86Z" style="fill:#F1C6AF"></path></g><g style="opacity:0.5"><path d="M336.41,122.74a9.39,9.39,0,0,1,2.21,1.81,14.66,14.66,0,0,1,1.73,2.37,12.94,12.94,0,0,1,1.14,2.51,7.77,7.77,0,0,1,.44,2.19.46.46,0,0,1-.13.37.2.2,0,0,1-.27,0l-2.46-1.41a1.89,1.89,0,0,1-.42-.36,5.37,5.37,0,0,1-.33-.54c0-.08-.09-.21-.17-.39a4.62,4.62,0,0,0-.35-.62,5.53,5.53,0,0,0-.56-.7,3.65,3.65,0,0,0-.83-.64,5.13,5.13,0,0,0-.68-.32,1.45,1.45,0,0,0-.58-.1.57.57,0,0,0-.42.21,1,1,0,0,0-.16.63,2,2,0,0,0,.18.82,3.82,3.82,0,0,0,.6.88,13,13,0,0,0,1.12,1.12l1.72,1.55A16.29,16.29,0,0,1,340,134a10.59,10.59,0,0,1,1.29,2,9.74,9.74,0,0,1,.77,2.18,11.45,11.45,0,0,1,.25,2.5,5.57,5.57,0,0,1-.43,2.38,2.61,2.61,0,0,1-1.21,1.28,3,3,0,0,1-1.84.19,7.12,7.12,0,0,1-2.31-.9,10,10,0,0,1-2.33-1.86,14.4,14.4,0,0,1-1.81-2.42,13.19,13.19,0,0,1-1.19-2.61,8.17,8.17,0,0,1-.45-2.42.51.51,0,0,1,.12-.38.2.2,0,0,1,.27,0l2.46,1.42a1.28,1.28,0,0,1,.41.34,2.74,2.74,0,0,1,.3.47l.23.51a6.34,6.34,0,0,0,.4.76,4.85,4.85,0,0,0,.64.85,4,4,0,0,0,.95.75,4.09,4.09,0,0,0,1.66.62q.66.06.66-.81a1.72,1.72,0,0,0-.24-.86,5.3,5.3,0,0,0-.73-1c-.33-.35-.74-.75-1.25-1.2s-1.1-1-1.79-1.61A11.1,11.1,0,0,1,332,130.4a10.8,10.8,0,0,1-.89-4.48,5.89,5.89,0,0,1,.36-2.16,2.89,2.89,0,0,1,1.06-1.38,2.64,2.64,0,0,1,1.68-.4A5.26,5.26,0,0,1,336.41,122.74Z" style="fill:#F1C6AF"></path><path d="M355.09,133.82a.93.93,0,0,1,.36.43,1.53,1.53,0,0,1,.15.64V138a.61.61,0,0,1-.15.46.27.27,0,0,1-.36,0l-3.3-1.91v14.81a.63.63,0,0,1-.15.47.28.28,0,0,1-.36,0l-2.45-1.42a.93.93,0,0,1-.36-.43,1.53,1.53,0,0,1-.15-.64V134.53l-3.3-1.91a.93.93,0,0,1-.36-.43,1.53,1.53,0,0,1-.15-.64v-3.06a.61.61,0,0,1,.15-.46.27.27,0,0,1,.36,0Z" style="fill:#F1C6AF"></path><path d="M364.32,139.14a1.45,1.45,0,0,1,.57.65,3.9,3.9,0,0,1,.27.79l4.09,20.56a2.38,2.38,0,0,1,.07.47.52.52,0,0,1-.12.38.22.22,0,0,1-.29,0l-2.36-1.37a1.17,1.17,0,0,1-.53-.55,1.87,1.87,0,0,1-.2-.59l-.53-2.7-5-2.88-.52,2.09a.71.71,0,0,1-.2.37c-.1.1-.28.08-.53-.07L356.69,155a.79.79,0,0,1-.3-.36,1.19,1.19,0,0,1-.12-.51,1.41,1.41,0,0,1,.08-.39l4.09-15.83a1,1,0,0,1,.27-.48c.13-.14.32-.13.57,0Zm-3,10.87,3,1.75L362.8,144Z" style="fill:#F1C6AF"></path><path d="M377.84,147a11.2,11.2,0,0,1,2.21,1.68,10,10,0,0,1,1.66,2.17,10.47,10.47,0,0,1,1.05,2.67,12.71,12.71,0,0,1,.37,3.15,7.28,7.28,0,0,1-.58,3.26,2.14,2.14,0,0,1-1.65,1.22l2.32,8.22a1.22,1.22,0,0,1,.06.35.48.48,0,0,1-.12.37.23.23,0,0,1-.3,0l-2.55-1.47a1.22,1.22,0,0,1-.53-.57,4.19,4.19,0,0,1-.25-.66L377.45,160l-1.73-1v6.18a.61.61,0,0,1-.15.46.27.27,0,0,1-.36,0l-2.45-1.42a1,1,0,0,1-.36-.44,1.45,1.45,0,0,1-.15-.63V144.5a.62.62,0,0,1,.15-.46.28.28,0,0,1,.36,0Zm-2.12,7.53,2.12,1.22a1.67,1.67,0,0,0,1.3.29c.35-.11.52-.57.52-1.38a3.42,3.42,0,0,0-.52-2,3.86,3.86,0,0,0-1.3-1.21l-2.12-1.23Z" style="fill:#F1C6AF"></path><path d="M396.22,157.56a1,1,0,0,1,.35.44,1.47,1.47,0,0,1,.16.63v3.07a.62.62,0,0,1-.16.46.27.27,0,0,1-.35,0l-3.3-1.9v14.81a.62.62,0,0,1-.15.46.27.27,0,0,1-.36,0L390,174.16a1,1,0,0,1-.35-.44,1.45,1.45,0,0,1-.15-.63V158.27l-3.3-1.9a1,1,0,0,1-.36-.44,1.45,1.45,0,0,1-.15-.63v-3.06a.63.63,0,0,1,.15-.47.28.28,0,0,1,.36,0Z" style="fill:#F1C6AF"></path></g><path d="M288.58,45.33a13.49,13.49,0,0,1,6.09,10.56c0,3.88-2.73,5.46-6.09,3.51a13.43,13.43,0,0,1-6.09-10.55C282.49,45,285.21,43.39,288.58,45.33Z" style="fill:#F1C6AF;opacity:0.30000000000000004"></path><path d="M292.1,53.26a5,5,0,0,0-.42-2h0v0a3.48,3.48,0,0,0-1.28-1.64c-.88-.52-1.61.53-1.73,1.77-.1-1.37-.82-3.27-1.7-3.79a1,1,0,0,0-1.29.13h0a2.29,2.29,0,0,0-.44,1.5c0,2.1,1.25,4,2.3,6l1.12,2.1,1.12-.79C290.83,55.77,292.1,55.36,292.1,53.26Z" style="fill:#fafafa"></path><path d="M306.86,55.89A13.46,13.46,0,0,1,313,66.44c0,3.89-2.73,5.46-6.09,3.52a13.47,13.47,0,0,1-6.09-10.56C300.77,55.52,303.49,53.94,306.86,55.89Z" style="fill:#F1C6AF;opacity:0.30000000000000004"></path><path d="M310.3,63.84a5.23,5.23,0,0,0-.43-2h0a3.51,3.51,0,0,0-1.29-1.65c-.87-.51-1.61.54-1.72,1.78-.11-1.37-.83-3.28-1.7-3.79a1,1,0,0,0-1.3.13h0a2.27,2.27,0,0,0-.44,1.5c0,2.1,1.25,4,2.3,6l1.11,2.1L308,67.1C309,66.35,310.29,65.93,310.3,63.84Z" style="fill:#fafafa"></path><path d="M325.14,66.44A13.48,13.48,0,0,1,331.23,77c0,3.89-2.73,5.46-6.09,3.52A13.46,13.46,0,0,1,319,70C319,66.07,321.77,64.5,325.14,66.44Z" style="fill:#F1C6AF;opacity:0.30000000000000004"></path><path d="M328.58,74.39a5.14,5.14,0,0,0-.43-2h0a3.55,3.55,0,0,0-1.29-1.64c-.88-.52-1.61.53-1.72,1.77-.11-1.37-.83-3.27-1.71-3.79a1,1,0,0,0-1.29.13h0a2.29,2.29,0,0,0-.45,1.5c0,2.1,1.25,4,2.31,6l1.11,2.1,1.12-.79C327.3,76.9,328.57,76.49,328.58,74.39Z" style="fill:#fafafa"></path><path d="M343,78.15l85.22,49.2a9.29,9.29,0,0,1,4.33,7.19c0,2.59-1.94,3.57-4.33,2.19L343,87.53a9.29,9.29,0,0,1-4.33-7.19C338.7,77.75,340.64,76.77,343,78.15Z" style="fill:#fafafa"></path><path d="M341.1,81.71a4.65,4.65,0,0,0,2.16,3.6l85.61,49.49c1.19.69,2.16.2,2.16-1.1a4.65,4.65,0,0,0-2.16-3.59L343.26,80.62C342.07,79.93,341.1,80.42,341.1,81.71Z" style="fill:#F1C6AF;opacity:0.5"></path><g style="opacity:0.30000000000000004"><path d="M437,135.29a.66.66,0,0,1,0-.3.21.21,0,0,1,.1-.19l1.93-1.17.18-.1a.27.27,0,0,1,.24,0l1.09.63a.41.41,0,0,1,.17.21.75.75,0,0,1,.08.31v8.95a.28.28,0,0,1-.08.22c0,.05-.1.05-.17,0l-1.18-.68a.47.47,0,0,1-.17-.21.82.82,0,0,1-.07-.3v-6.06l-1.07.63q-.07.06-.18,0a.5.5,0,0,1-.16-.23Z" style="fill:#F1C6AF"></path><path d="M445.14,136.72a4.2,4.2,0,0,1,1.16,1,5.53,5.53,0,0,1,.81,1.28,7.32,7.32,0,0,1,.48,1.48,10.25,10.25,0,0,1,.18,1.54c0,.4,0,.82,0,1.26s0,.83,0,1.21a6.48,6.48,0,0,1-.18,1.32,2.15,2.15,0,0,1-.48.93,1.17,1.17,0,0,1-.81.35,2.28,2.28,0,0,1-1.16-.37,4.35,4.35,0,0,1-1.16-1,5.85,5.85,0,0,1-.8-1.28,6.25,6.25,0,0,1-.48-1.48,9.13,9.13,0,0,1-.19-1.54c0-.38,0-.79,0-1.23s0-.85,0-1.24a5.83,5.83,0,0,1,.19-1.32,2,2,0,0,1,.48-.93,1.16,1.16,0,0,1,.8-.35A2.16,2.16,0,0,1,445.14,136.72Zm1,6.71c0-.78,0-1.55,0-2.33,0-.24,0-.47-.06-.68a3.77,3.77,0,0,0-.16-.6,1.92,1.92,0,0,0-.29-.5,1.71,1.71,0,0,0-.45-.39.75.75,0,0,0-.45-.13.4.4,0,0,0-.29.17,1.21,1.21,0,0,0-.16.41,5.07,5.07,0,0,0-.06.6c0,.75,0,1.53,0,2.33a4.63,4.63,0,0,0,.06.67,2.2,2.2,0,0,0,.16.6,1.83,1.83,0,0,0,.29.51,1.71,1.71,0,0,0,.45.39.75.75,0,0,0,.45.13.39.39,0,0,0,.29-.17,1,1,0,0,0,.17-.41A3.64,3.64,0,0,0,446.1,143.43Z" style="fill:#F1C6AF"></path><path d="M454.37,145.3a4.27,4.27,0,0,1-.06.74,2.25,2.25,0,0,1-.18.62,2,2,0,0,1-.34.51,2.08,2.08,0,0,1-.52.39l-1.26.74,2.26,1.31a.47.47,0,0,1,.17.21.66.66,0,0,1,.07.3v1.47a.28.28,0,0,1-.07.22.12.12,0,0,1-.17,0l-4.75-2.74a.41.41,0,0,1-.17-.21.67.67,0,0,1-.08-.3v-1.2a1.4,1.4,0,0,1,.06-.41.4.4,0,0,1,.2-.25l2.69-1.41a.78.78,0,0,0,.4-.43,1.89,1.89,0,0,0,.08-.53c0-.07,0-.16,0-.29a2.34,2.34,0,0,0-.1-.4,2.55,2.55,0,0,0-.23-.43,1.31,1.31,0,0,0-.41-.36.52.52,0,0,0-.4-.1.43.43,0,0,0-.25.15.83.83,0,0,0-.12.27c0,.1-.05.17-.06.22s-.08.17-.14.18a.43.43,0,0,1-.22-.07l-1.11-.63a.45.45,0,0,1-.14-.18.53.53,0,0,1-.06-.24,4,4,0,0,1,.16-1.07,1.9,1.9,0,0,1,.47-.78,1.16,1.16,0,0,1,.77-.31,2.06,2.06,0,0,1,1.1.34,4.17,4.17,0,0,1,1.05.88,5.88,5.88,0,0,1,.76,1.15,6.79,6.79,0,0,1,.46,1.31A6.18,6.18,0,0,1,454.37,145.3Z" style="fill:#F1C6AF"></path><path d="M457.56,150.84l.14.35a2.09,2.09,0,0,0,.19.36,1.67,1.67,0,0,0,.26.35,1.28,1.28,0,0,0,.36.29.75.75,0,0,0,.36.13.44.44,0,0,0,.3,0,.48.48,0,0,0,.21-.25,1.09,1.09,0,0,0,.08-.48,1.85,1.85,0,0,0-.24-.91,1.68,1.68,0,0,0-.65-.67.59.59,0,0,0-.24-.09h-.21l-.17,0a.21.21,0,0,1-.14,0l-1.4-.81a.58.58,0,0,1-.18-.22.54.54,0,0,1-.06-.3l.27-4.79a.34.34,0,0,1,.07-.22.12.12,0,0,1,.17,0l3.85,2.22a.46.46,0,0,1,.17.21.66.66,0,0,1,.07.3v1.47a.28.28,0,0,1-.07.22.12.12,0,0,1-.17,0l-2.62-1.52-.06,1.2a.91.91,0,0,1,.37,0,1.32,1.32,0,0,1,.47.18,4.11,4.11,0,0,1,1,.78,5.32,5.32,0,0,1,.78,1.08,5.65,5.65,0,0,1,.51,1.32,6.18,6.18,0,0,1,.19,1.51,3.68,3.68,0,0,1-.21,1.35,1.44,1.44,0,0,1-.56.75,1.16,1.16,0,0,1-.83.18,2.7,2.7,0,0,1-1-.37,4.91,4.91,0,0,1-1.1-.87,5.57,5.57,0,0,1-.81-1.13,5.93,5.93,0,0,1-.51-1.23,4.53,4.53,0,0,1-.19-1.21.31.31,0,0,1,.05-.19.13.13,0,0,1,.15,0l1.14.66a.66.66,0,0,1,.22.22A1.88,1.88,0,0,1,457.56,150.84Z" style="fill:#F1C6AF"></path></g></g></g><g id="freepik--Puff--inject-30"><g id="freepik--puff--inject-30"><path d="M166.06,289.21c-14.27-17.46-27.54-38.41-38.52-44.74-19.76-11.38-59.9,13.63-64.29,70.7S101,404.22,141.73,413c20.85,4.48,48.25-.06,59-3.78,32.77-11.35,51.12-27.23,59-49.18,8.6-24.06,2.09-38.53-9.11-44.69a25.89,25.89,0,0,0-16.49-2.72C194.29,318.87,177.11,302.73,166.06,289.21Z" style="fill:#F1C6AF"></path><path d="M215.85,403.15l1.8-.84c2.86-14,1.25-27.12-4.85-39.26-6-11.85-16.19-22.95-31.28-34-22.25-16.23-31-31.63-39.42-46.52-3.09-5.46-6-10.62-9.54-15.71-7.87-11.36-15.72-17.33-24.69-18.77a30,30,0,0,0-11,.38q-1.85,1.2-3.68,2.63a30.76,30.76,0,0,1,14.37-1.42c8.51,1.37,16,7.12,23.63,18.1,3.48,5,6.39,10.16,9.46,15.58,8.52,15.05,17.34,30.6,39.87,47C200,344.58,223.91,367.16,215.85,403.15Z" style="opacity:0.2"></path><path d="M141.73,413c20.85,4.48,48.25-.06,59-3.78,32.77-11.35,51.12-27.23,59-49.18.21-.59.39-1.16.58-1.74l-.48-.19c-8.39-2.73-17.41.54-25.72,3.49-20.9,7.42-44.52,12.91-64.75,3.84-13.32-6-27.05-15.33-34.13-28.1s-10.35-27.36-15.49-41c-2.32-6.15-4.48-14.1-9.7-20.09-4.89-5.6-11.34-9.67-18.77-9.66-6.1,0-11.74,1.84-17,8.06-5.68,10.91-9.77,24.47-11,40.58C58.86,372.25,101,404.22,141.73,413Z" style="opacity:0.1"></path></g></g><g id="freepik--Console--inject-30"><g id="freepik--console--inject-30"><path d="M433.45,365.54l28.4-16.4a5.65,5.65,0,0,0,2.55-4.42v.33a5.64,5.64,0,0,0-2.55-4.42l-57.11-33a5.66,5.66,0,0,0-5.1,0l-28.4,16.4a5.62,5.62,0,0,0-2.55,4.41v-.32a5.62,5.62,0,0,0,2.55,4.41l57.11,33A5.66,5.66,0,0,0,433.45,365.54Z" style="fill:#37474f"></path><path d="M430.91,322.77l30.95,17.86a5.64,5.64,0,0,1,2.55,4.42v-.33a5.65,5.65,0,0,1-2.55,4.42l-28.4,16.4a5.31,5.31,0,0,1-2.55.61Z" style="fill:#263238"></path><path d="M461.86,343.58,433.46,360a5.59,5.59,0,0,1-5.1,0l-57.11-33c-1.41-.81-1.41-2.13,0-2.94l28.4-16.4a5.66,5.66,0,0,1,5.1,0l57.11,33C463.27,341.45,463.27,342.77,461.86,343.58Z" style="fill:#455a64"></path><path d="M461.86,338.19v2.71l-29.48,17a2.74,2.74,0,0,1-1.06.37,2.9,2.9,0,0,1-1.88-.37l-58.19-33.59v-2.81l57.11,33.06a5.63,5.63,0,0,0,5.1,0Z" style="fill:#F1C6AF"></path><path d="M461.86,338.19v2.71l-29.48,17a2.74,2.74,0,0,1-1.06.37l-.42,0v-3.12a5.21,5.21,0,0,0,2.56-.61Z" style="opacity:0.2"></path><path d="M433.46,354.58l28.4-16.39a5.63,5.63,0,0,0,2.55-4.42v-5.25a5.63,5.63,0,0,0-2.55-4.42l-57.11-33a5.66,5.66,0,0,0-5.1,0l-28.4,16.39a5.66,5.66,0,0,0-2.55,4.42v5.25a5.47,5.47,0,0,0,2.55,4.33l57.11,33.06A5.59,5.59,0,0,0,433.46,354.58Z" style="fill:#37474f"></path><path d="M430.91,306.23l30.95,17.87a5.63,5.63,0,0,1,2.55,4.42v5.25a5.63,5.63,0,0,1-2.55,4.42l-28.4,16.39a5.17,5.17,0,0,1-2.55.61Z" style="fill:#263238"></path><path d="M461.86,327.05l-28.4,16.39a5.66,5.66,0,0,1-5.1,0l-57.11-33c-1.41-.81-1.41-2.13,0-3l28.4-16.39a5.66,5.66,0,0,1,5.1,0l57.11,33C463.27,324.91,463.27,326.23,461.86,327.05Z" style="fill:#455a64"></path><path d="M422.25,314c3.15,1.81,3.15,4.74,0,6.55a12.69,12.69,0,0,1-11.39,0c-3.14-1.81-3.14-4.74,0-6.55A12.56,12.56,0,0,1,422.25,314Z" style="fill:#F1C6AF"></path><path d="M375.88,315.93a2.2,2.2,0,0,1,1,1.74c0,.64-.45.91-1,.6a2.2,2.2,0,0,1-1-1.73C374.88,315.89,375.33,315.62,375.88,315.93Z" style="fill:#F1C6AF"></path><path d="M375.88,319.78a2.21,2.21,0,0,1,1,1.74c0,.64-.45.91-1,.6a2.2,2.2,0,0,1-1-1.73C374.88,319.74,375.33,319.47,375.88,319.78Z" style="fill:#F1C6AF"></path></g></g><g id="freepik--speach-bubble--inject-30"><g id="freepik--speach-bubble--inject-30"><path d="M118.06,150.54v-15l12.67-1.11a.91.91,0,0,1,.52.11c.49.27,10.7,6.14,10.86,6.23a.92.92,0,0,1,.2,1.43l-13.43,14.56Z" style="fill:#F1C6AF"></path><path d="M128.88,156.75l13.43-14.56a.92.92,0,0,0-.76-1.55l-12.67,1.1Z" style="fill:#F1C6AF"></path><path d="M118.06,135.52l10.82,6.23,12.67-1.11a1,1,0,0,1,.44.06c-1-.6-10.27-5.92-10.73-6.17a.87.87,0,0,0-.54-.11Z" style="fill:#F1C6AF"></path><path d="M118.06,135.52l10.82,6.23,12.67-1.11a1,1,0,0,1,.44.06c-1-.6-10.27-5.92-10.73-6.17a.87.87,0,0,0-.54-.11Z" style="fill:#fff;opacity:0.5"></path><g id="freepik--speach-bubble--inject-30"><path d="M128.89,123.57a7,7,0,0,0-3.15-5.45l-2.56-1.47a6.91,6.91,0,0,0-6.29,0L77.63,139.36a6.93,6.93,0,0,0-3.14,5.44V188a6.93,6.93,0,0,0,3.14,5.45l2.56,1.48a7,7,0,0,0,6.29,0l39.26-22.71a6.94,6.94,0,0,0,3.15-5.45Z" style="fill:#F1C6AF"></path><path d="M74.49,188a6.93,6.93,0,0,0,3.14,5.45l2.56,1.48a7.06,7.06,0,0,0,5.75.25c-1.48.56-2.6-.28-2.6-2.07v-43.2a6.44,6.44,0,0,1,.92-3.1l-8.85-5.11a6.44,6.44,0,0,0-.92,3.1Z" style="opacity:0.2"></path><path d="M128.78,122.68c-.36-1.34-1.58-1.76-3-.93L86.48,144.47a6.27,6.27,0,0,0-2.22,2.34l-8.84-5.1a6.36,6.36,0,0,1,2.21-2.35l39.26-22.71a7,7,0,0,1,6.29,0l2.57,1.48A6.91,6.91,0,0,1,128.78,122.68Z" style="fill:#fff;opacity:0.5"></path></g><polygon id="freepik--Heart--inject-30" points="97.66 147.72 101.21 145.67 101.21 148.29 104.77 146.24 104.77 151.83 108.32 149.77 108.32 144.18 111.88 142.13 111.88 139.51 115.44 137.45 115.44 140.08 118.99 138.02 118.99 143.61 122.55 141.56 122.55 149.77 118.99 151.83 118.99 155.93 115.44 157.99 115.44 162.09 111.88 164.15 111.88 168.25 108.32 170.31 108.33 174.41 104.77 176.46 104.77 172.36 101.21 174.41 101.21 170.31 97.66 172.36 97.66 168.25 94.1 170.31 94.1 166.2 90.54 168.25 90.54 160.04 94.1 157.99 94.1 152.4 97.66 150.34 97.66 147.72" style="fill:#fff"></polygon></g></g></svg>
